<?xml version="1.0" encoding="UTF-8"?>
<svg id="Camada_2" data-name="Camada 2" xmlns="http://www.w3.org/2000/svg" xmlns:xlink="http://www.w3.org/1999/xlink" viewBox="0 0 778.71 946.03">
  <defs>
    <style>
      .cls-1 {
        fill: none;
      }

      .cls-1, .cls-2, .cls-3 {
        stroke-width: 0px;
      }

      .cls-2 {
        fill: url(#pattern);
      }

      .cls-3 {
        fill: rgba(215,217,255,0.499);
      }
    </style>
    <pattern id="pattern" data-name="pattern" x="0" y="0" width="389.35" height="315.34" patternTransform="translate(-381.47 -331.21)" patternUnits="userSpaceOnUse" viewBox="0 0 389.35 315.34">
      <g>
        <rect class="cls-1" x="0" y="0" width="389.35" height="315.34"/>
        <path class="cls-3" d="m2.54,80.24c.86-3.76.88-7.64.98-11.52.07-2.54.43-5.07.6-7.61.32-5.08.54-10.17.92-15.25.3-4.06.72-8.11.59-12.19-.06-1.91-.32-3.81-.32-5.71,0-2.03.19-4.07.31-6.1.13-2.1.32-4.18-.14-6.28-.18-.83-.39-1.71.1-2.61.2-.36-.06-.96-.13-1.64,1.22-.82,2.41-1.79,3.74-2.47,2.21-1.11,4.52-2.02,6.78-3.02,2.09-.93,4.17-1.88,6.27-2.81.64-.28,1.28-.61,1.96-.73.52-.09,1.19-.06,1.61.21,1.34.86,2.74,1.28,4.33,1.21.76-.03,1.53.14,2.29.12,1.23-.04,2.36.16,3.47.73.58.29,1.34.23,2.01.32.8.11,1.67.06,2.4.35,1.38.56,2.8.78,4.27.89.67.04,1.42.15,1.97.49.92.57,1.87.7,2.91.76,1,.06,2,.28,2.99.45,1,.17,2,.54,2.99.51,2.03-.05,3.89.57,5.77,1.12,1.68.49,2.22,1.37,1.67,3.02-.61,1.81-.45,3.59-.37,5.43.11,2.53-.03,5.08-.04,7.62-.01,2.16,0,4.32,0,6.48s0,4.15-.01,6.22c0,1.02-.05,2.04-.07,3.05-.05,3.93-.29,7.86-.14,11.8.11,3.02-.37,6.05-.55,9.09-.06.95.04,1.9.01,2.85-.16,4.77-.33,9.54-.53,14.31-.05,1.07-.27,2.14-.4,3.1-.48.76-1.11,1.06-1.85.99-1.91-.2-3.43.7-4.91,1.7-2,1.35-3.96,2.74-5.44,3.77-1.14,1.7-1.96,2.9-2.77,4.1-1.41.42-2.75,0-3.98-.4-2.29-.76-4.64-1.31-6.92-2.05-2.66-.87-5.38-1.45-8.04-2.28-2.83-.88-5.78-1.39-8.48-2.79-1.6-.83-3.56-.98-5.18-1.79-2.75-1.37-5.65-1.79-8.62-2.14-.79-.09-1.59-.45-2.09-1.31Zm45.72,6.09c-.09-.13-.16-.26-.26-.37-.02-.02-.25.11-.24.16,0,.13.09.26.15.4.16-.09.26-.14.36-.19Zm6.3-11.3c-.27,1.29-.5,2.44-.76,3.58-.35,1.55-.39,2.29-.11,3.33.79-2.48,1.19-5.43.86-6.91Zm.52-16.25c.04-3.44.14-6.88.33-10.31.26-4.76.65-9.52.95-14.29.18-2.92.29-5.85.4-8.77.1-2.67.23-5.35.22-8.02,0-1.12-.32-2.23-.51-3.46-4.75-.87-9.37-1.72-14-2.55-.33-.06-.69.09-1.38.19.78.61,1.2,1.04,2,1.05.73,0,1.47.22,2.16.46,1.27.45,2.51.82,3.9.71,2.03-.16,3.51,1.12,5.19,2.08-.47,1.34-.49,2.51.03,3.67.12.28.26.66.17.92-.42,1.25-.1,2.37.4,3.5.2.45.19.99.21,1.5.06,1.84-.41,3.64-.53,5.44-.2,2.95-.88,5.9-.34,8.89.11.61.06,1.28-.05,1.9-.47,2.46-.43,4.94-.29,7.42.19,3.21.32,6.42.09,9.63-.1,1.38-.09,2.78-.05,4.16.06,2.35.18,4.7.28,7.05.03.64.02,1.28.14,1.9.04.23.39.4.61.6h0s0,.01,0,.02c-.16.27-.36.52-.47.8-.09.22-.05.49-.08.85.21-.14.3-.16.31-.2.09-.48.17-.97.25-1.45,0,0,0,0,0-.01,0,0,0,0,0,0,.04-1.25.11-2.5.11-3.75,0-3.31-.09-6.62-.05-9.93ZM24.28,6.87c.28.13.49.28.73.33,2.03.52,4.08.88,6.19,1.04,3.43.26,6.84.75,10.26,1.15,3.47.4,6.93.87,10.36,1.61,1.77.38,3.54.9,5.41.68.39-.05.82.22,1.23.34.12,2.45.38,4.8.33,7.14-.13,5.03-.38,10.05-.66,15.07-.16,2.86-.57,5.71-.67,8.57-.21,5.98-.33,11.96-.41,17.95-.09,6.49.08,12.98-.76,19.44-.04.3.02.62.04.92q1.23.44,2.6-.36c.2-1.84.71-3.82.57-5.75-.26-3.58.37-7.08.5-10.62.06-1.84.4-3.67.44-5.5.15-7.57.26-15.15.35-22.72.02-1.78-.16-3.55-.11-5.33.09-3.43.35-6.86.41-10.29.05-2.6-.54-5.19-.01-7.8.06-.29-.1-.62-.18-1.03-.61-.21-1.13-.29-1.54-.54-1.01-.61-2.09-.79-3.26-.9-2.46-.24-4.93-.58-7.35-1.1-4.15-.89-8.2-2.26-12.45-2.72-.94-.1-1.86-.61-2.78-.58-2.73.1-5.4-.39-8.11-.72-.54.43-1.05.87-1.11,1.7Zm13.09,3.94c.53,1.17,1.24.9,2.36.32-1.09-.15-1.72-.24-2.36-.32Zm-19.54.05c.56.11.87.19,1.17.22,1.06.08,2.15.03,3.19.24,1.6.32,3.17.83,4.75,1.24.24.06.5.04.75.08,1.86.29,3.74.47,5.56.92.94.23,1.79.56,2.77.31.27-.07.61.11.91.17,1.53.34,3.06.7,4.6,1.03.99.21,1.98.44,2.98.56,1.58.19,3.16.3,4.75.42.54.04,1.08-.02,1.62-.03,0,.01.02.02.02.04.02,0,.04.01.07.01.25.48.62.94.67,1.44.17,1.71.27,3.43.27,5.15,0,2.03-.11,4.07-.24,6.1-.12,1.9-.37,3.79-.51,5.69-.19,2.59-.47,5.18-.45,7.76.02,3.42.29,6.83.43,10.25.02.51-.03,1.01-.04,1.52,0,2.09-.03,4.19,0,6.28.02,2.29.2,4.58.1,6.86-.15,3.42-.48,6.83-.72,10.24-.11,1.52-.14,3.05-.31,4.57-.13,1.14-.18,2.24.3,3.37.76-.27,1.08-.79,1.19-1.56.35-2.51.78-5.02,1.13-7.54.14-1,.24-2.01.24-3.01,0-4.69-.06-9.38-.05-14.07,0-2.41.34-4.84.09-7.21-.37-3.5-.38-6.97-.09-10.46.09-1.13.23-2.3.08-3.42-.34-2.56.02-5.1.35-7.58.4-2.93.67-5.78-.2-8.65-.11-.35,0-.76-.03-1.14-.1-.94-.23-1.87-.36-2.81-.15-1.08-.78-1.65-1.83-1.76,0-.02-.02-.04-.03-.06-.02,0-.04,0-.06,0-.38-.73-1.07-.81-1.77-.74-1.58.17-3-.26-4.4-.94-.43-.21-.99-.35-1.43-.26-.77.16-1.33-.12-1.97-.45-.59-.31-1.39-.73-1.92-.56-1.33.44-2.22-.14-3.14-.85-.89-.69-1.87-1.04-3-.94-.31.03-.64,0-.93-.09-1.56-.5-3.06-1.12-4.79-.7-.48.12-1.09-.24-1.62-.45-.47-.19-.9-.47-1.29-.69-.77.03-1.47.02-2.15.11-1.25.16-2.5.35-3.74.6-.28.06-.5.41-.91.78Zm-1.04,1.82c.53.4.7.62.91.67,2.35.57,4.7,1.15,7.06,1.65,1.37.29,2.77.4,4.14.66,2.62.51,5.22,1.18,7.85,1.58,3.84.57,7.68,1.11,11.38,2.39.64.22,1.21.39,1.29.71-.36,2.06-.76,3.73-.91,5.42-.18,2.02-.2,4.07-.19,6.11.01,4.32.1,8.65.14,12.97.01,1.15.02,2.29-.02,3.44-.16,4.58-.39,9.16-.52,13.75-.11,4.26-.13,8.52-.17,12.78-.02,2.63,0,5.26,0,7.9.25-.71.44-1.44.52-2.19.22-2.02.39-4.04.58-6.07.28-3.03.68-6.06.78-9.1.1-3.23-.11-6.46-.15-9.69-.02-1.08.17-2.16.08-3.23-.41-4.76-.31-9.53-.18-14.29.06-1.96.5-3.91.65-5.88.18-2.47.3-4.94.33-7.42.02-2.14-.11-4.29-.17-6.25-.9-.83-1.66-1.14-2.62-1.16-1.45-.04-2.91-.14-4.34-.34-2.11-.29-4.09-1.18-6.24-1.38-1.56-.14-3.12-.46-4.67-.74-2.98-.52-5.99-.95-8.94-1.65-2.06-.48-4.11-.43-6.58-.63Zm-2.12,2.7c-2.07,21.45-3.94,42.91-5.05,64.56.06.04.26.21.5.28,2.82.8,5.33,2.46,8.27,2.88.31.04.59.24.89.33,4.05,1.3,8.09,2.66,12.16,3.89,3.4,1.03,6.93,1.6,10.23,2.97.98.41,2.04.71,3.08.41.92-1.91.91-3.91.98-5.87.27-7.96.45-15.92.65-23.88.04-1.34,0-2.68.05-4.01.08-2.03.3-4.06.31-6.09.04-6.18-.05-12.36.02-18.54.04-3.68.3-7.35.46-11.06-2.64-1.22-5.57-1.13-8.34-1.7-3.17-.65-6.41-.96-9.61-1.5-1.06-.18-2.06-.66-3.11-.89-1.61-.36-3.25-.58-4.86-.91-2.09-.44-4.18-.93-6.27-1.39-.15.21-.34.35-.36.51Zm-9.38,62.44c-.02.88.11,1.53,1.18,1.48,1.12-1.79,1.5-3.74,1.63-5.79.29-4.45.68-8.88,1-13.32.32-4.37.56-8.76.94-13.13.4-4.62.98-9.23,1.4-13.86.52-5.77.96-11.55,1.41-17.33.04-.48-.13-.97-.19-1.37-1.94-1.16-3.61-1.03-5.34.37,0,.52,0,1.08,0,1.65-.03,1.59.05,3.18-.11,4.76-.33,3.24-.57,6.49-.26,9.73.36,3.81.28,7.6.02,11.41-.39,5.58-.63,11.17-.94,16.75-.1,1.78-.21,3.55-.32,5.32-.09,1.46-.25,2.91-.28,4.36-.07,2.99-.06,5.98-.13,8.97Z"/>
        <path class="cls-3" d="m170.77,114.1c-1.14,2.41-2.97,4.23-4.87,6.04-1.1,1.05-1.99,2.32-2.98,3.48-2.16,2.52-4.6,4.76-7.08,6.96-.94.84-1.67,1.91-2.55,2.83-.7.73-1.5,1.37-2.23,2.07-1.38,1.32-2.72,2.7-4.14,3.97-1.8,1.61-3.61,3.2-5.26,4.98-1.03,1.1-2.38,1.89-3.49,2.93-2.96,2.78-5.75,5.76-8.84,8.4-2.23,1.91-4.22,4.04-6.41,5.99-2.51,2.24-4.97,4.54-7.47,6.79-1.7,1.53-3.42,3.03-5.18,4.5-2.44,2.03-4.91,4.03-7.4,6-1.3,1.03-2.6,2.09-4.03,2.89-2.78,1.55-7.35,2.12-10.17-1.17-.29-.34-.72-.56-.97-.92-.28-.4-.65-.91-.61-1.34.21-2.48.63-4.97,2.29-6.94,2.21-2.63,4.62-5.08,7.32-7.23,1.74-1.39,3.31-2.98,5.02-4.41,2.83-2.37,5.69-4.7,8.56-7.03,2.57-2.09,5.17-4.13,7.73-6.23,2.07-1.7,4.05-3.5,6.14-5.17,2.33-1.87,4.74-3.64,7.1-5.47.65-.5,1.28-1.05,1.91-1.58,2.82-2.37,5.64-4.74,8.45-7.12.49-.41.9-.9,1.38-1.32,3.49-3.06,6.99-6.11,10.48-9.17.43-.38.94-.71,1.25-1.17.82-1.24,2.03-2.02,3.16-2.9.25-.2.51-.38.75-.6,2.34-2.16,4.67-4.32,7.16-6.62-.61-2.08.08-3.92.82-5.76.31-.76.51-1.57.8-2.34,1.07-2.82,2.95-5.04,5.26-6.9,1.93-1.56,3.84-3.19,5.94-4.48,2.04-1.26,4.23-2.37,6.68-2.73,2.41-.36,4.74-.99,6.96-1.97,1.1-.48,2.24-1,3.15-1.75,1.33-1.1,2.56-.7,3.99-.24-.07.3-.08.55-.2.75-.52.93-1.13,1.83-1.6,2.79-.64,1.32-1.12,2.71-1.77,4.02-.99,1.98-1.14,4.17-1.62,6.27-.43,1.86-.84,3.72-1.29,5.57-.4,1.61-.91,3.18-1.26,4.79-.74,3.38-2.89,5.72-5.5,7.79-3.5,2.77-7.46,3.31-11.71,2.63-1-.16-2-.32-3.12-.49-.16.18-.42.38-.54.65Zm3.4-8.98c2.83-1.09,5.34-2.7,7.46-4.86,3.23-3.29,5.63-7.2,8.08-11.07.33-.52.44-1.17.71-1.95-.52.15-.9.19-1.22.35-2.37,1.23-4.77,2.41-7.07,3.76-1.41.83-2.71,1.88-3.94,2.98-1.04.93-1.87,2.08-2.84,3.08-2.1,2.15-2.99,4.92-4.14,7.71,1.15.63,2.08.34,2.96,0Zm7.72-2.57c-2.62,2.48-5.78,3.97-9.52,5.26.84.25,1.24.45,1.64.47.76.03,1.54.04,2.28-.12,2.6-.55,4.99-1.65,6.86-3.53,1.38-1.39,2.54-3.01,3.71-4.59,1.19-1.6,1.62-3.5,1.89-5.46-2.21,2.79-4.32,5.56-6.87,7.98Zm10.28-10.91c-.12-.03-.24-.06-.36-.1-.19.5-.47.99-.56,1.52-.63,3.5-1.9,6.71-4.14,9.5-.64.79-1.29,1.58-1.85,2.42-1.62,2.4-4.11,3.47-6.65,4.53-1.75.73-3.63.56-5.44.83-.59.09-1.13.06-1.47.94.28.17.47.37.69.41,1.38.24,2.76.52,4.15.66,5.27.53,10.4-2.79,12.4-7.68,1.19-2.92,1.77-5.97,2.59-8.97.36-1.31.45-2.7.66-4.05Zm-24.36,11.82c-.04.6.25.94.89,1.07,2.14-3.34,3.83-6.97,6.76-9.8,1.98-1.9,3.86-3.86,6.33-5.12,2.66-1.36,5.31-2.75,7.95-4.13,1.21-.63,2.43-1.27,3.62-2.59-.95.27-1.54.43-2.13.6-1.46.42-2.91,1.15-4.38,1.21-2.76.11-4.98,1.42-7.19,2.75-1.68,1.01-3.19,2.29-4.77,3.46-3.75,2.78-5.81,6.62-6.95,11.04-.13.48-.11,1.01-.15,1.52Zm-6.58,17.02c-1.1-1.96-2.18-4.06-5.01-4.22-15.66,14.65-32.52,27.94-49.06,41.65.34.59.58,1.02.88,1.56-1.05,1.2-2.03.28-3.15.25-.3.28-.7.64-1.08.98q.77,1.1.76,2.1c-1.07.95-2.29-.72-3.49.25.29.56.57,1.08.87,1.65-.41.32-.74.58-1.02.81-.71-.21-1.32-.39-2.01-.59-.39.44-.76.85-1.16,1.3.34.54.63.99.98,1.54-.3.31-.57.8-.81.78-.71-.04-1.42-.28-2.37-.5-.23.2-.64.55-1.11.96.55.69,1.02,1.26,1.55,1.92-.38.39-.7.71-1.05,1.07-.77-.46-1.41-.84-2.14-1.27-.4.51-.76.98-1.06,1.36.67.95,1.24,1.75,1.87,2.64-.49.33-.79.53-1.06.7-.78-.47-1.47-.88-2.15-1.29-1.02,1.48-.95,2.99-.8,4.47.27.26.52.46.72.71,1.36,1.73,3.21,2.04,5.17,1.54,1.15-.29,2.29-.81,3.28-1.48,1.94-1.31,3.86-2.63,5.57-4.3,1.81-1.76,3.99-3.14,5.97-4.74,1.13-.92,2.21-1.91,3.28-2.9,2.7-2.49,5.13-5.27,8.18-7.38.73-.5,1.44-1.11,1.95-1.82,1.05-1.49,2.53-2.49,3.86-3.67,4.56-4.04,8.74-8.5,13.54-12.27.84-.66,1.46-1.6,2.25-2.33,2.51-2.33,5.08-4.6,7.56-6.95,2.03-1.92,3.97-3.94,5.94-5.92,1.26-1.26,2.51-2.53,3.74-3.81.77-.8,1.15-1.82.6-2.8Zm4.19-2.28c-.73-2.33-1.62-4.33-3.61-5.55-1.54-.19-2.34.62-2.79,1.64,1.65,1.81,3.17,3.47,4.75,5.2.5-.4,1.05-.82,1.65-1.29Zm4.37-10.09c0-1.2-.96-1.65-2.17-1.27-.92.3-1.72.74-2.41,1.45-.85.88-1.83,1.63-3.01,2.66,2.62.9,3.71,2.94,4.93,4.77.24-.07.41-.07.47-.15,1.67-2.21,2.18-4.78,2.18-7.45Z"/>
        <path class="cls-3" d="m177.83,190.06c-1.46-2.9-2.89-5.82-4.2-8.79-.77-1.74-1.18-3.63-1.95-5.37-1.07-2.44-1.46-4.98-1.57-7.61-.03-.58-.31-1.16-.59-2.12.47-.92.79-2.13.59-3.44-.02-.12.03-.26.01-.38-.2-2.52.95-4.04,3.32-4.88,2.7-.95,5.32-2.12,8-3.12,1.18-.44,2.44-.69,3.65-1.06,3.46-1.06,6.96-2.04,10.37-3.24,5.8-2.04,11.82-2.88,17.87-3.68,2.64-.35,5.24-1.03,7.85-1.55,2.81-.57,5.6-1.21,8.42-1.67,1.3-.21,2.67-.18,3.99-.04.85.09,1.82.39,2.45.92,1.2,1.02,2.4,2.14,3.25,3.45,1.69,2.62,3.21,5.35,4.66,8.11.85,1.62,1.44,3.38,2.13,5.09.48,1.18.98,2.35,1.37,3.55.3.95.44,1.96.64,2.94.19.93.08,1.98.92,2.3.12,1.78.13,3.3.35,4.78.28,1.84-.6,3.49-.71,5.26-.02.27-.3.55-.52.78-.92.96-1.85,1.91-2.82,2.82-.41.39-.88.74-1.37,1.03-1.62.96-3.26,1.9-4.85,2.81-2.16.46-4.31.9-6.46,1.38-3.41.78-6.83,1.51-10.21,2.41-2.58.68-5.1,1.58-7.64,2.39-.48.15-.95.4-1.44.46-3,.38-5.79,1.48-8.61,2.48-.77.28-1.6.41-2.39.63-1.41.38-2.81.81-4.23,1.14-1.73.4-3.47.8-5.23,1.04-2.52.33-5.06.52-7.59.75-1.43.12-2.37-.62-3.19-1.72-1.81-2.41-2.95-5.18-4.29-7.85Zm60.04-6.02c-6.33-6.44-13.72-11.46-20.74-16.98-.4.28-.67.44-.91.64-1.96,1.64-3.78,3.41-5.25,5.52-1.09,1.56-2.62,2.23-4.48,1.72-2.26-.62-4.49-1.38-6.73-2.07-.6-.19-1.21-.36-1.96-.58-.36.62-.81,1.18-1.03,1.81-.88,2.52-1.68,5.07-2.52,7.6-.28.84-.41,1.79-.9,2.49-1.94,2.76-2.51,6.11-4.02,9.04-.6,1.17-1,2.44-1.67,4.11,1.57-.14,2.7-.2,3.8-.36,2.01-.3,4.02-.61,6.01-1.03,1.61-.34,3.2-.83,4.79-1.27.68-.18,1.35-.36,2.02-.58,2.42-.79,4.82-1.64,7.24-2.39,1.76-.55,3.56-.98,5.33-1.48,3.23-.9,6.31-2.2,9.72-2.61,3-.36,5.93-1.44,8.87-2.28.81-.23,1.73-.4,2.43-1.31Zm-8.56-30.43c-.58.83-1.05,1.75-1.7,2.52-1.47,1.74-3.02,3.44-4.56,5.12-.55.61-1.3,1.05-1.78,1.7-.73.99-1.94,1.64-2.26,3.04.42.41.79.86,1.23,1.2,2.41,1.87,4.86,3.69,7.27,5.56,3.1,2.42,6.17,4.87,9.27,7.3,1.39,1.09,2.81,2.14,4.18,3.18,2.59-1.17,4.18-2.46,4.2-3.29-.17-.62-.32-1.15-.49-1.8.8-.33,1.48-.62,2.28-.95.02-.46.05-.93.08-1.44-1.12-.2-2.1-.38-3.16-.57.06-2.47,2.26-1.13,3.24-2.12-.08-.44-.18-.96-.27-1.4-.29-.09-.41-.16-.53-.15-.19.01-.37.11-.56.12-1.05.02-1.56-.26-1.62-.92-.07-.81.48-1.1,1.14-1.29.35-.1.69-.22,1.17-.37-.2-.95-.37-1.77-.55-2.68-.82.16-1.42.27-2.23.43-.09-.75-.16-1.39-.25-2.08.69-.23,1.21-.4,1.85-.62-.37-.96-.7-1.8-1.01-2.61-.91.14-1.59.25-2.35.36-.23-.41-.44-.76-.72-1.25.84-.48,1.58-.91,2.49-1.44-.31-.68-.61-1.33-.97-2.12-.99.36-1.8.66-2.61.95q-1.2-.74-.75-1.95c.68-.27,1.35-.54,2.17-.85-.47-.81-.83-1.44-1.16-2.01-1.47-.36-2.81,1.21-4.16-.03.02-1.79,1.7-1.56,2.82-2.18-.27-.47-.51-.88-.78-1.35-1.33.29-2.61.57-4,.87-.1-.41-.19-.74-.29-1.14,1.03-.51,1.97-.98,3.1-1.54-.51-.84-.92-1.5-1.86-1.83-.58.53-1.13.9-1.5,1.4-1.49,2.06-2.92,4.15-4.36,6.24Zm-56.74,7.23c.51.38.89.82,1.38,1,2.26.85,4.54,1.65,6.82,2.44,1.38.47,2.78.89,4.18,1.32,1.03.32,2.07.62,3.1.93,1.53.45,3.21.61,4.55,1.38,2.69,1.56,5.73,2.05,8.55,3.17,1.41.56,2.95.82,4.41,1.27,1.77.54,3.04-.11,4.2-1.43,1.3-1.47,2.72-2.84,4.14-4.2,1.98-1.89,4.06-3.68,6-5.61,1.85-1.83,3.58-3.78,5.37-5.67.48-.51,1.05-.95,1.44-1.51,1.91-2.76,3.77-5.56,5.65-8.35-.06-.15-.12-.3-.18-.45-2.32.31-4.66.49-6.95.95-4.29.87-8.46,2.35-12.9,2.54-1.71.07-3.42.4-5.11.7-2,.35-3.98.79-5.97,1.19-.75.15-1.52.23-2.24.48-3.66,1.28-7.29,2.61-10.95,3.9-.42.15-.87.19-1.3.31-1.59.43-3.21.78-4.77,1.31-2.17.73-4.3,1.58-6.44,2.41-1.05.41-2.11.83-2.99,1.93Zm4.89,23.15c1.02-.11,1.85-.86,2.8.04-.03.34-.06.77-.09,1.2-.32.19-.6.33-.86.51-.3.21-.58.45-.92.72.16.37.25.67.41.94.18.31.41.6.65.94.54-.26.98-.52,1.45-.68.95-.32,1.26-.02,1.35,1.25-.67.55-1.33,1.1-2.05,1.7.4.61.7,1.07.98,1.49.74-.12,1.36-.21,1.9-.3,1.17,1.21.07,1.86-.6,2.62.69,1.1,1.23,2.24,2.48,2.69.49-.91.93-1.72,1.38-2.54.4-.73.84-1.43,1.18-2.18,1.44-3.11,2.43-6.42,4.3-9.33.2-.31.35-.69.41-1.06.54-3.1,1.71-5.99,2.87-8.88.18-.45.27-.94.41-1.44-1.9-.87-3.67-1.74-5.48-2.49-.87-.36-1.82-.66-2.76-.73-1.19-.09-2.2-.54-3.25-1-1.28-.56-2.57-1.2-3.92-1.45-2.57-.46-5-1.32-7.44-2.19-.1-.04-.23.02-.45.05-.04.34-.07.7-.11,1.08,1.04.7,2.57-.4,3.04,1.17-.59,1.29-2.22.37-2.93,1.45.58.64,1.23.38,1.83.33.91-.08,1.44.28,1.6,1.24-.92.93-2.22.47-3.37,1.03.03.47.07.99.1,1.44,1.37.43,2.84-.81,3.88.72-.43,1.66-2.16.75-3.06,1.63-.01.6.16,1.15.85,1.4.64-.14,1.24-.27,1.77-.38.71.45,1,.95.64,1.79-.65.27-1.39.56-2.27.93.35.9.65,1.7.99,2.57.64-.23,1.11-.4,1.57-.57.54-.2,1.09-.51,1.6,0,.53.55.43,1.15.04,1.71-.62.32-1.21.62-1.93.99.43.66.75,1.16,1.03,1.6Z"/>
        <path class="cls-3" d="m58.56,134.29c1.69-1.14,3.43-2.22,5.12-3.37.9-.61,1.43-1.41,1.53-2.59.21-2.37,2.19-3.71,4.52-2.95,1.16.38,2.16.24,3.22-.06,3.09-.87,6.18-1.73,9.25-2.67,1.22-.37,2.41-.28,3.63-.25.41.5.77.95,1.15,1.43-.24,1.22-.47,2.38-1.12,3.47-.62,1.05-.97,2.26-1.6,3.3-1.29,2.13-2.7,4.19-4.05,6.29-.19.29-.34.6-.53.95.21.42.41.83.61,1.22-.66,1.49-1.82,2.44-3.2,3.27-.28,0-.64.06-.98.02-1.5-.18-2.67.39-3.86,1.28-3.38,2.49-6.88,4.82-10.29,7.28-1.75,1.26-3.46,2.58-5.12,3.96-2.52,2.11-5.39,3.68-8.12,5.48-2.48,1.64-4.96,3.3-7.43,4.94-.48.32-.94.71-1.46.95-1.98.91-3.39,2.35-4.49,4.24-1.25,2.14-3.6,2.78-5.89,1.93-2.29-.85-4-2.28-5.13-4.46-.85-1.64-1.92-3.18-2.63-4.88-.88-2.13-1.04-4.44-.53-6.69.43-1.89,3.17-3.23,5.09-2.65.5.15.98.37,1.49.56,2.51-1.17,4.93-2.41,7.2-3.98,2.69-1.86,5.52-3.51,8.23-5.33,2.76-1.85,5.45-3.8,8.18-5.7,2.39-1.67,4.79-3.33,7.21-4.97Zm-24.65,34.85c-5.93-2.11-8.48-6.84-7.85-13.34-2.04-.28-2.62.05-2.99,1.78-.32,1.53.04,3.03.56,4.43.48,1.29,1.41,2.42,1.82,3.72.62,1.99,2.06,3.21,3.55,4.41,1.85,1.49,3.65,1.1,4.91-1.01Zm38.14-40.97c.51,1.27,1.09,2.49,1.49,3.75.73,2.28,2.32,3.54,4.48,4.18,1.86-1.19,6.18-8.5,7.1-11.84-.97-.46-1.49-.51-2.72-.16-2.41.69-4.84,1.35-7.23,2.11-1.15.36-2.2.98-3.12,1.96Zm-4.79,3.49c.96,2.7,2.33,5.2,4.25,7.35.26.29.69.65,1,.62,1.04-.12,1.7.61,2.49.99,1.27-.26,2.67-.29,2.74-2.28-.81-.47-1.68-1-2.57-1.49-1.25-.69-2.38-1.5-2.91-2.88-.67-1.73-1.34-3.46-1.93-5.22-.25-.75-.49-1.42-1.38-1.82-.52.33-1.1.7-1.6,1.01-.42,1.56-.5,2.58-.1,3.72Zm-8.55,4.42c-.24.09-.39.21-.49.33-.1.12-.13.26-.14.41,0,.34.15.71.15,1.04,0,.14-.04.28-.12.4-.63.52-1.15.15-1.65-.13-.17-.09-.34-.17-.5-.21-.58.44-1.09.82-1.74,1.32.16.45.33.94.41,1.16-1.03,1.05-1.75.34-2.41.14-1.2.98-2.33,1.9-3.44,2.81.11.81.47,1.61-.6,2.1-.45-.2-.97-.43-1.49-.66-1.77.99-1.88,1.21-1.44,3.07,1.01-.62,2.01-1.23,2.99-1.84,2.37-1.47,4.47-3.35,7.16-4.33,1.25-.46,2.48-.68,3.76-.38.42.1.92.32,1.17.65.85,1.14,1.26,2.48.37,3.73-.97,1.36-2.08,2.65-3.28,3.82-1.12,1.09-2.46,1.95-3.67,2.97-2.72,2.29-5.89,3.46-9.33,3.93-.42-.26-.82-.42-1.1-.7-1.75-1.72-2.87-3.46-.33-5.86.45-.42.82-.92,1.23-1.39-.47-.41-.89-.78-1.33-1.17-.59.36-1.12.69-1.7,1.04.2.53.38,1,.6,1.56-.43.27-.8.5-1.13.7-.54-.37-.96-.66-1.44-.99-.65.45-1.26.87-1.87,1.3.13.67.24,1.22.35,1.79-.4.22-.74.41-1.03.56-.54-.37-.96-.66-1.42-.97-.68.4-1.31.78-1.87,1.11.17.8.29,1.4.41,1.93-1.22.89-1.81-.32-2.63-.55-.71.35-1.38.69-2.23,1.11-.28.78-.8,1.54-.78,2.28.11,3.07,1.08,5.75,3.63,7.78,1.4,1.12,2.7,1.24,4.18.45,1.59-.86,3.19-1.71,4.71-2.68,2.65-1.7,5.24-3.49,7.87-5.23,1.89-1.26,3.84-2.45,5.69-3.77,2.9-2.07,5.71-4.25,8.6-6.33,2.65-1.91,5.34-3.75,8.01-5.62.36-.25.67-.56,1.17-.99-3.54-2.55-5.29-6.13-6.72-10.11-.71.52-1.25.91-1.72,1.25.22.87.38,1.53.58,2.34-.58.05-1.02.09-1.38.12-.31-.5-.55-.87-.83-1.32-.4.26-.68.44-.94.61.13.6.25,1.15.34,1.58-1.08,1.05-1.81-.18-2.6-.18Zm-14,18.27c2.53-.22,4.95-.89,7.03-2.57,1.95-1.57,3.9-3.14,5.82-4.74,1.41-1.18,1.81-2.64,1.17-4.29-1.5-.19-2.77.3-3.89.98-2.68,1.62-5.32,3.31-7.91,5.08-.99.68-1.89,1.56-2.66,2.5-.99,1.22-.86,1.7.44,3.03Z"/>
        <path class="cls-3" d="m109.2,34.25c.16-1.3.92-1.92,1.94-2.28,2.09-.75,4.18-1.5,6.28-2.23,3.65-1.28,7.44-1.73,11.28-1.76,2.04-.02,4.07.23,5.97,1.09,1.1.5,2.24.92,3.33,1.44,1.08.52,2.18,1.03,3.17,1.69,1.92,1.27,3.47,2.97,4.93,4.73.54.65.97,1.54,1.09,2.37.35,2.57.71,5.16-.21,7.79.42.33.81.64,1.2.95,1.96,1.51,3.94,3.01,5.88,4.54.39.31.71.72.98,1.14.51.77.22,1.3-.65,1.7-2.32-2.42-4.9-4.51-7.94-6.06-3.54,3.68-7.87,4.85-12.62,4.82-.55,0-1.17-.07-1.64-.33-2.17-1.19-4.38-2.33-6.41-3.72-1.98-1.37-3.68-3.14-5.65-4.53-2.23-1.57-3.95-3.6-5.53-5.75-1.39-1.9-2.63-3.91-4.86-4.99-.25-.12-.4-.45-.54-.6Zm5.9-1.89c1.03,1.34,2.42,1.19,3.59,1.67.35-.69.66-1.32,1-2,.94.46,1.34.97,1.38,1.85.04.74.14.73,1.38,1.24.02-.62,0-1.17.08-1.7.08-.55.25-1.09.42-1.81.51.41.88.71,1.21.97-.07,3,.2,3.41,2.53,3.91.91-1.17-.62-2.96,1.13-4.07,1.51,1.4.16,3.5,1.43,5.21.65.32,1.59.79,2.83,1.4.04-1.8.07-3.35.09-4.82.61-.52,1.1-.39,1.36.12.25.49.4,1.06.45,1.61.06.63-.06,1.27-.04,1.9.04,1.74.66,3.03,3.08,3.15.28-.96.02-1.92-.38-2.74-.45-.91-.35-1.68-.04-2.53,1.41.27,1.5.45,1.66,1.57.23,1.57.52,3.13.9,4.67.28,1.11,1.35,1.41,2.42,1.96.22-2.58-1.93-4.71-1-7.31.92.11,1.4.43,1.59,1.37.43,2.12.97,4.22,1.51,6.31.15.58.21,1.3,1.12,1.45,1.01-.71.74-1.89.94-2.9.09-.49-.02-1.01-.03-1.52-.04-1.92-.57-3.53-2.2-4.83-1.43-1.14-2.54-2.66-4.19-3.57-2.51-1.4-5.12-2.7-7.95-3.1-2.43-.34-4.96-.21-7.41.06-2.3.25-4.57.89-6.83,1.46-.69.17-1.3.64-2.04,1.03Zm-3.03.96c.19.45.24.82.45,1,1.94,1.61,3.25,3.69,4.63,5.74,1.48,2.19,3.63,3.72,5.63,5.38,1.61,1.34,3.27,2.62,4.94,3.87,2.35,1.75,4.98,2.87,7.93,2.92,3.17.05,5.96-1.1,8.31-3.24.17-.16.24-.43.45-.82-2.88-2.36-6.18-3.99-9.42-5.64-3.34-1.7-6.91-2.92-10.31-4.52-3.37-1.58-7.04-2.07-10.75-3.23.1-.69.2-1.32.3-2.02-.68.17-1.37.35-2.16.56Z"/>
        <path class="cls-3" d="m62.35,233.59c-1.12.41-2.23.87-3.38,1.32.39,2.65.8,5.18-.89,7.42-1.89-.07-2.64-1.56-3.75-2.54-1.13-1-2.27-2-3.49-3.07-.71.36-1.45.71-2.17,1.09-1.57.82-3.26,1.09-5,.99-2.14-.12-2.84-1.23-2.05-3.2.52-1.3,1.05-2.6,1.66-3.86.44-.9.45-1.7-.14-2.51-.56-.77-1.17-1.51-1.69-2.31-.42-.63-.8-1.3-1.08-2-.55-1.4-.13-2.43,1.32-2.8,1.41-.36,2.88-.46,4.34-.62.62-.07,1.26-.01,1.86-.01,1.37-1.43,2.54-2.69,3.75-3.91,1.47-1.48,2.82-1.4,4.26.08,1.4,1.44,1.91,3.28,2.41,5.12.15.55.2,1.12.3,1.7,2.85,1.06,5.4,2.47,7.17,4.75-.16,2.46-1.49,3.66-3.44,4.37Zm-.17-1.78c1.48-.55,1.77-1.76.65-2.8-1.39-1.3-2.88-2.57-4.96-2.55-.76,0-1.37-.2-1.8-.84.79-2.72-.05-5.33-2.37-7.15-2.13,1.54-3.84,3.53-5.34,5.76-2.09-1.39-4.08-1.27-6.08-.5-.38.77-.4,1.42.11,2.04,1.12,1.37,2.24,2.73,3.55,4.33-.33,2.25-2.59,4.07-2.67,6.71.63.64,1.41.45,2.15.34,1.75-.26,3.24-1.13,4.67-2.09.83-.55,1.57-.73,2.54-.36.55,2.52,2.52,3.79,4.5,5.26,1.09-2.3-.09-4.21-.6-6.11.85-.83.86-.78,1.81-1,1.3-.29,2.62-.57,3.86-1.03Z"/>
        <g>
          <path class="cls-3" d="m290.33,121.33c-1.05-.86-3.13-.74-3.24-2.98.28-2.48,1.98-4.14,4.03-5.65.31-1.82.52-3.6.95-5.32.17-.68.77-1.29,1.25-1.86,1.71-2,3.75-3.21,6.54-2.83,1.07.14,2.2-.04,3.29-.17.95-.11,1.7.23,2.43.76.42.31.83.64,1.3.85,2.09.94,3.07,2.58,3.16,4.81.04,1.16.07,2.31.1,3.39,1.21.82,2.28,1.51,3.31,2.26,1.61,1.17,1.77,5.04.26,6.35-.34.3-.79.57-1.22.65-1.11.2-1.4.92-1.41,1.89,0,.76.02,1.52,0,2.28-.07,3.5-.24,6.99-.19,10.48.06,3.84.38,7.68.49,11.53.16,5.54.52,11.07.28,16.63-.13,3.08.26,6.17.36,9.27.08,2.39.09,4.78.1,7.17,0,2.28.01,4.54-.38,6.81-.19,1.12-.06,2.32-.01,3.47.1,2.62.33,5.25.35,7.87.02,2.1-.25,4.2-.29,6.3-.07,3.83-.95,7.49-2.3,11.05-.56,1.47-1.31,2.86-1.97,4.29-.53,1.14-1.54,1.78-2.61,2.23-2.73,1.16-5.9.93-8.35-1.21-2.45-2.16-3.92-4.72-4.25-7.97-.31-3.01-.82-6.01-1.04-9.02-.17-2.32-.02-4.66-.02-6.99,0-1.57-.03-3.15-.02-4.72,0-.64.12-1.28.13-1.92.01-3.56-.01-7.13,0-10.69,0-.81.13-1.63.19-2.44.09-1.22.33-2.46.2-3.65-.12-1.12-.05-2.2.04-3.3.29-3.32-.01-6.64-.1-9.96-.06-2.27-.28-4.54-.44-6.81-.06-.93-.2-1.86-.22-2.79-.08-2.96.01-5.92-.21-8.87-.21-2.73.06-5.47-.34-8.21-.26-1.76-.02-3.6,0-5.4.01-.98.1-1.97.07-2.95-.04-1.5-.15-3-.23-4.64Zm20.38,77.59c.01-.17-.09-.34-.1-.52-.17-2.15-.46-4.3-.47-6.46-.02-2.74.22-5.47.29-8.21.08-2.68.09-5.36.12-8.04,0-.14-.16-.28-.24-.41-.16,0-.3-.04-.38,0-3.3,1.94-6.9,1.94-10.52,1.5-1.9-.23-3.76-.71-5.79-1.11-.17,1.39-.44,2.71-.47,4.04-.1,4.55-.12,9.11-.15,13.66,0,1.45.04,2.91.06,4.36.03,2.62-.12,5.25.12,7.84.28,2.9.97,5.75,1.36,8.64.23,1.7,1.03,3.1,1.99,4.41,1.06,1.45,2.51,2.46,4.28,2.87,1.29.3,2.48.14,3.66-.65,1.83-1.23,2.68-3.07,3.35-5,.86-2.47,1.83-4.96,2.24-7.52.5-3.09.46-6.27.64-9.41Zm-2.36-25.14c-.54-.3-.99-.62-1.5-.82-.48-.2-1.02-.24-1.51-.42-2.14-.79-4.38-1.09-6.64-1.27-1.25-.1-2.3.56-3.43.94v1.74c4.49,1.83,10.8,1.81,13.07-.16Zm-1.03-62.16c.1.05.21.11.31.16.13-.25.25-.5.38-.75-.12-.06-.23-.12-.35-.17-.11.26-.22.51-.34.77Zm-4.48.13h2.35c.64-1.23,1.29-2.45,1.91-3.68.25-.5.04-.85-.45-1.09-1.25,1.56-2.44,3.06-3.8,4.77Zm-.04-4.23c-1.21,1.39-2.42,2.79-3.62,4.19-.06.07-.05.21-.11.45.36-.04.78.03.98-.14,1.79-1.62,3.62-3.23,4.76-5.76-1.16.03-1.55.71-2.02,1.26Zm-7.47,4.76c2.27-.52,5.25-3.73,6.07-6.31-.17-.04-.37-.17-.49-.12-.52.21-1.19.35-1.5.75-1.37,1.79-2.64,3.66-4.07,5.68Zm-.82-2.02c.94-1.23,1.87-2.45,2.96-3.87-1.64-.26-2.63.19-3.17,1.24-.62,1.21-.59,1.78.21,2.63Zm-4.6,8.52c.43.12.93.4,1.42.37,2.1-.11,4.17.61,6.28.16.43-.09.93.04,1.38.13.96.19,1,.26,1.14,1.75-1.44.76-2.85.78-4.31.56-.74-.11-1.5-.11-2.24-.04-.53.05-.77.46-.57,1.08,1.4.24,2.82.49,4.13.72.47.94.23,1.5-.54,1.95-1.2-.2-2.44-.4-3.75-.62v2.48c.74-.04,1.37-.06,2-.12.64-.06,1.29-.21,1.87.43v1.26c-1.31.95-2.8.17-4.29.7.08.67.16,1.37.24,2.13,1.3.08,2.44.14,3.53.21.25,1.54.09,1.82-1.1,1.92-.86.07-1.72.06-2.79.1.14.98.26,1.8.4,2.76.76-.09,1.33-.19,1.9-.21.8-.03,1.19.4,1.04,1.21-.06.31-.33.58-.38.67-1.03.26-1.84.46-2.69.67.08,1.22.15,2.24.23,3.44.67.11,1.34.19,2,.33.47.1,1,.34.87.9-.08.39-.46.75-.8,1.02-.19.16-.56.09-.85.14-.38.06-.76.13-1.18.2.05,1.09.1,2.06.15,3.1.93.19,1.77.37,2.61.54.13.4.24.72.32.96-.66,1.36-2.01.49-3.02,1.17.19,1,.39,2.06.58,3.07.59.18,1.05.3,1.48.46.52.2.97.52.87,1.15-.1.62-.58.81-1.18.8-.38,0-.76.06-1.17.09v3.16c.81.15,1.49.27,2.21.4,0,.41.12.95-.02,1.03-.62.36-1.32.59-2.17.94.11.81.24,1.71.35,2.55q1.44.62,1.33,1.86c-.46.15-.95.3-1.58.5.09,1.17.18,2.31.28,3.64.76-.17,1.36-.3,1.96-.45,1.54-.39,3.11-.56,4.68-.31,1.15.19,2.29.44,3.42.72,1.93.47,3.88.86,5.63,1.88.21.12.51.1.84.16,0-.47.01-.81,0-1.16-.1-2.86-.23-5.72-.29-8.58-.07-3.44-.02-6.89-.14-10.33-.15-4.14-.52-8.28-.6-12.42-.1-4.91,0-9.82,0-14.72,0-1.03.19-2.11-.47-3.15-.36-.03-.76-.1-1.15-.09-.58.02-1.16.17-1.73.15-1.12-.04-1.46-.67-1.07-1.86,2.32-.56,4.8.2,7.02-.82.44-.86,1-1.67.22-2.48-1.56-1.62-3.26-3.02-5.75-2.77-1.08.11-2.19-.29-3.25.18-2.29-.58-4.52.17-6.77.33-1.99.14-3.88.74-5.67,1.63-1.12.56-1.19.73-.85,2.36Z"/>
          <path class="cls-3" d="m307.56,127.03h-2.26v1.61h2.26v-1.61Z"/>
          <path class="cls-3" d="m307.25,131.54c-.25-.19-.64-.19-1-.29-.32.26-.62.51-.9.74.54,1.18.79,1.37,1.58,1.27.49-.07.97-.27.92-.82-.03-.32-.33-.69-.61-.91Z"/>
          <path class="cls-3" d="m301.25,215.4c.13-.19.11-.58.02-.83-.24-.68-.83-.63-2.18.23.25.46.51.92.94,1.7.59-.51.98-.76,1.22-1.1Z"/>
          <path class="cls-3" d="m300.41,218.66c.18.7.46,1.25,1.12,1.25.73,0,1.27-.41,1.48-1.16-.83-.64-1.62-.94-2.6-.09Z"/>
          <path class="cls-3" d="m303.81,214.82c.92,1.23,1.11,1.22,2.23-.27-1.22-.97-1.48-.93-2.23.27Z"/>
        </g>
        <g>
          <path class="cls-3" d="m382.19,231.53c1.53,4.48.24,8.56-1.69,12.5-1.43,2.93-3.53,5.41-5.84,7.72-1.46,1.46-3.2,2.3-5.12,2.8-1.95.51-3.94.89-6.02,1.36,0,.27-.04.58-.02.88.3,3.63.23,7.25-.38,10.84-.32,1.87-.31,3.83-1.55,5.43-1.44,1.86-2.82,3.76-4.35,5.54-3.24,3.76-6.52,7.5-9.86,11.17-3.59,3.96-7.24,7.86-10.93,11.73-2.28,2.39-4.76,4.6-6.99,7.04-1.77,1.93-3.79,3.35-6.13,4.24-.98-.16-1.88-.21-2.73-.45-1.16-.32-2.39-.6-3.4-1.21-2.22-1.36-4.32-2.92-6.49-4.37-.84-.56-1.83-.92-2.57-1.58-1.08-.97-1.98-2.15-2.99-3.2-.47-.49-1.04-.88-1.55-1.34-.56-.5-1.16-.97-1.63-1.55-1.17-1.43-2.19-2.98-3.42-4.35-.92-1.02-1.42-2.22-2.09-3.36-.67-1.16-2.13-1.85-2.82-3.01-1.41-2.38-3.3-4.45-4.32-7.11-.87-2.24-1.06-4.35.07-6.41.66-1.21,1.62-2.31,2.62-3.27,2.71-2.59,5.46-5.14,8.31-7.58,2.12-1.82,4.47-3.37,6.64-5.14,2.41-1.96,4.69-4.09,7.12-6.04,1.88-1.51,3.92-2.79,5.84-4.26,2.16-1.66,4.23-3.45,6.4-5.1,1.09-.84,2.32-1.5,3.28-2.12.94-.22,1.66-.39,2.39-.56.37-.09.73-.25,1.1-.25,3.18,0,6.36-.22,9.51.48,1.73.38,3.49.65,5.25.94.61.1,1.23.11,1.59.14,1.27-2.15,2.31-4.12,3.53-5.96,1.88-2.84,4.23-5.24,7-7.24,1.97-1.42,3.94-2.77,6.54-2.74,1.46.01,2.98.11,4.37-.23,2.39-.59,4.32.72,6.44,1.2.84.19,1.6.78,2.37,1.23,1.25.73,2.05,1.77,2.54,3.19Zm-31.86,21.79c.28,1.46,1.19,2.51,2.4,3.31.22.14.56.1.98.17-.46-1.4-.85-2.65-1.29-3.87-1-2.83-.9-5.58.35-8.34.57-1.26.93-2.63,1.38-3.95,1.04-3.1,2.72-5.64,5.58-7.44,1.66-1.04,3.11-2.4,4.95-3.18,2.19-.93,4.47-1.39,6.85-1.4.5,0,1-.06,1.56-.35-.28-.11-.56-.3-.84-.31-1.53-.03-3.06-.08-4.58.02-2.04.14-3.92.76-5.68,1.9-3.89,2.51-6.54,6.1-8.95,9.92-.66,1.05-1.23,2.15-1.1,3.56.05.55-.73,1.18-1.13,1.78-1.09,2.63-1.02,5.41-.5,8.19Zm-2.55-.71c-.11-.03-.57-.18-1.14-.37-.4,1.23-.14,2.38.06,3.51,2.12,2.22,2.17,2.25,3.63,1.96-.8-1.6-1.61-3.21-2.55-5.1Zm13.58,2.3c-.44-2.49-1.34-4.89-2.05-7.33-.19-.66-.64-1.11-1.31-1.28-1.1-.29-2.2-.55-3.59-.89-.19.9-.32,1.56-.44,2.13.7.49,1.29.96,1.79,1.44,2.17,2.04,2.55,4.06,1.58,7.04-1.38,1.53-2.95,2.7-4.81,3.4-.62.24-1.27.42-1.96.55-1.03.2-1.93.05-2.72-.49-3.04-2.09-3.9-3.69-3.55-7.01.06-.61.28-1.31.66-1.76.85-1,1.85-1.88,2.96-2.98.19-.9.43-2.06.7-3.34-.31-.13-.63-.33-.98-.41-4.43-.95-8.93-1.31-13.45-1.22-2.27.05-4.4.74-6.25,2.09-2.16,1.58-4.24,3.26-6.37,4.87-.86.65-1.8,1.2-2.64,1.88-3.61,2.93-7.18,5.9-10.79,8.82-2.08,1.68-4.22,3.29-6.32,4.94-3.42,2.68-6.61,5.59-9.38,8.95-1.31,1.59-2.2,3.89-.6,6.15.84,1.18,1.38,2.57,2.2,3.77.49.72,1.15,1.4,1.88,1.88,1,.65,1.76,1.39,2.26,2.48.29.62.79,1.15,1.18,1.72.18.26.46.51.48.79.22,2.53,1.8,4.39,3.38,6.05,2.71,2.85,5.67,5.49,8.69,8.01,1.79,1.5,3.83,2.76,5.9,3.87,1.32.71,2.86,1.06,4.35,1.38.61.13,1.38-.12,1.99-.39,1.91-.82,3.37-2.24,4.8-3.7,2.94-3,5.88-6,8.86-8.96,3.25-3.23,6.33-6.61,9.3-10.09,2.47-2.9,5.05-5.71,7.51-8.63,1.84-2.18,3.6-4.44,5.33-6.71.44-.58.71-1.34.87-2.06,1.05-4.95,1.45-9.96.56-14.95Zm-5.9-.45c.65-2.15.21-3.34-1.44-4.24-.09,1.69.57,3,1.44,4.24Zm7.14-3.98c1.26-.08,2.4.07,3.36-.26,1.48-.52,2.95-1.21,4.24-2.11,2.12-1.48,3.61-3.64,4.82-5.83,1.15-2.07,1.84-4.43,1.79-6.93-.05-2.46-2.42-4.88-4.97-4.76-4.15.21-7.73,1.72-11.01,4.25-2.47,1.89-4.16,4.23-5.05,7.17-.11.36-.13.74-.19,1.15.23.17.28.23.33.23,3.51-.09,5.05,2.12,5.96,5.08.22.71.49,1.4.71,2.02Zm17.32-19.11c-.11-.16-.15-.39-.3-.48-1.73-1.07-3.43-2.24-5.82-2.56.31.36.4.54.54.61,3.24,1.57,4.66,4.06,4.18,7.71-.23,1.75-.57,3.55-1.24,5.17-.62,1.49-1.74,2.78-2.65,4.16-1.61,2.44-3.67,4.37-6.36,5.59-.62.28-1.29.51-1.95.67-.98.24-1.99.41-3.2.65.24.38.33.67.42.67,2.93-.12,5.81-.53,8.39-2.03.91-.53,1.71-1.33,2.42-2.13,1.09-1.22,2.15-2.49,3.07-3.85,1.39-2.05,2.68-4.21,3.26-6.65.61-2.57.83-5.15-.77-7.52Z"/>
          <path class="cls-3" d="m308.45,272.74c-.73-.31-1.31.05-1.5.68-.74,2.48-1.38,4.98-2.03,7.49-.05.21.11.48.15.65.77.59,1.36.28,2.03-.22-.36-2.05.54-3.9,1.1-5.83.26-.89.82-1.76.25-2.77Z"/>
          <path class="cls-3" d="m303.72,274.97c-.33.51-.68.93-.88,1.41-.25.57-.35,1.21-.55,1.81-.22.65-.22,1.3.31,1.75.68.58,1.28.13,1.81-.25.17-1,.32-1.93.5-2.84.16-.8-.12-1.35-1.17-1.88Z"/>
          <path class="cls-3" d="m348.29,262.3c-.12.31-.25.63-.41,1.02,1.54.97,3.11,1.09,4.69.9.55-.62.63-1.17-.06-1.86-1.28-.02-2.7-.04-4.22-.06Z"/>
          <path class="cls-3" d="m309.75,276.87c-.49,1.39-1.79,2.41-1.32,4.19.53.04,1.07.08,1.7.13.27-1.12.58-2.15.75-3.2.08-.54-.29-.94-1.12-1.12Z"/>
          <path class="cls-3" d="m350.99,265.56c-.91.36-2.17-.13-2.82,1.2,1.21.46,2.24,1.36,3.69.26-.11-.5-.2-.92-.3-1.37-.23-.04-.43-.15-.57-.09Z"/>
          <path class="cls-3" d="m349.11,268.47c-.36.35-.74.72-1.32,1.28.74.62,1.2,1.02,1.67,1.41,1.02-1.31.98-1.65-.35-2.7Z"/>
        </g>
        <g>
          <path class="cls-3" d="m154.58,226.55c.96,5.7.57,11.3-1.39,16.74-.55,1.54-1.23,3.13-2.22,4.41-2.51,3.21-5.22,6.27-7.9,9.34-1.55,1.77-3.62,2.89-5.79,3.58-2.66.84-5.41.59-8.01-.57-.92-.41-1.79-.93-2.78-1.45-2.82,1.55-6.02,2.1-9.24,2.43-.91.09-1.93-.12-2.79-.46-1.83-.74-3.6-1.62-5.36-2.51-2.32-1.17-3.82-3.2-5.07-5.34-2.79-4.75-4.87-9.86-5.82-15.28-.67-3.88-.52-7.89.98-11.68.33-.83.76-1.63.97-2.49.86-3.48,3.2-5.88,5.84-8.05,1.03-.84,2.06-1.61,3.4-2.05,2.71-.9,5.29-.49,7.86.34,3.14,1.02,5.92,2.67,8,5.32.18.23.47.38.8.64,1.11-1.24.44-2.62.54-3.87.1-1.31.02-2.63.02-4.11-.75,0-1.47-.17-2.08.03-2.79.9-5.42-.16-8.1-.58-1.58-1.27-3.29-2.41-4.43-4.15-.97-1.49-1.93-2.99-2.93-4.54.19-.88.9-1.29,1.77-1.38,1.7-.16,3.41-.32,5.12-.32,2.95,0,5.39,1.41,7.65,3.11,1.11.83,2.01,1.93,3.03,2.89.12.11.33.13.58.23.71-1.47-.46-3.45,1.32-4.62,1.99-.12,3.81.59,5.58,1.49.74.37.71.42.84,1.71-2.39,2.52-3.23,5.67-3.69,8.99-.09.69-.21,1.37-.32,2.06-.08.54-.17,1.07-.28,1.79,1.78-.97,3.31-1.84,4.87-2.65,4.42-2.31,8.72-2.23,12.71.9,1.64,1.29,3.1,2.83,4.58,4.32.39.38.68.95.82,1.48.36,1.42.66,2.85.91,4.29Zm-29.38-17.56c.12-1.48-1.2-2.12-2.02-2.99-1.88-1.99-4.28-3.24-6.96-3.66-1.28-.2-2.8-.5-4.08.66,1.8,6.33,9.99,8.87,13.06,5.99Zm3.4,8.41c.63-1.03,1.02-2.14,1.11-3.31.21-2.73,1.23-5.18,2.43-7.58.19-.37.29-.79.42-1.18-.91-.82-1.8-1.38-3.09-1.45-.8,4.51-1.66,8.94-.87,13.52Zm24.15,7.99c-.48-2.09-1.09-4.05-2.92-5.41-.71-.53-1.35-1.17-1.97-1.8-1.46-1.48-3.31-2.02-5.28-2.4-1.33-.26-2.5.36-3.74.45-1.54.11-2.82.74-4.07,1.49-1.09.65-2.08,1.48-3.15,2.17-1.07.69-1.86,1.54-1.94,2.85-1,.38-1.9.71-2.79,1.05-.7-.95-1.21-1.76-1.83-2.48-1.5-1.73-3.01-3.55-5.08-4.57-1.86-.91-3.9-1.5-5.91-2.05-2.28-.63-4.41-.16-6.28,1.35-.45.36-.89.72-1.35,1.06-1.83,1.35-3.29,3.04-4.17,5.12-.77,1.81-1.28,3.73-1.87,5.62-.23.72-.47,1.47-.49,2.22-.07,2.04-.09,4.08,0,6.12.05,1.13.25,2.29.61,3.36,1.1,3.32,2.05,6.69,3.75,9.79,1.63,2.98,3.3,5.9,6.55,7.46,3.2,1.53,6.44,2.78,10.1,1.86,2.69-.67,5.28-1.45,6.98-3.89.27-.38.77-.6,1.17-.89,1.52,1.14-.06,1.98-.06,3.06,1.48,1.96,6.69,2.61,9.15,1.35,2-1.03,3.84-2.27,5.29-3.99,2.13-2.52,4.27-5.04,6.23-7.69.93-1.26,1.67-2.74,2.14-4.23,1.75-5.56,2.23-11.21.91-16.96Z"/>
          <path class="cls-3" d="m106.75,222.88c-.46-.42-.99-.52-1.5-.1-.27.81.32,1.2.74,1.64,1,1.06,2.02,2.1,3.01,3.17.77.83,1.5,1.69,2.29,2.59.53-.26.96-.46,1.63-.78-2-2.5-4.04-4.55-6.17-6.52Z"/>
          <path class="cls-3" d="m104.63,226.69c-.5-.53-1.12-.5-1.81.27.32.49.54.95.86,1.32,1.11,1.29,2.24,2.55,3.38,3.82.34.37.7.74,1.1,1.04.59.44,1.16.4,1.64-.33-.05-.2-.04-.5-.19-.67-1.64-1.83-3.29-3.66-4.99-5.44Z"/>
          <path class="cls-3" d="m103.61,232.5c-.37.28-.66.5-1.07.8.76,1.62,2.03,2.52,3.13,3.54.52.48,1.28.52,1.95-.46-1.56-1.04-2.17-3.03-4.01-3.88Z"/>
          <path class="cls-3" d="m112.54,223.53c-1.23-1.27-2.38-2.44-3.56-3.65-.57.25-1,.45-1.38.62,1.36,1.55,2.57,2.93,3.89,4.43.44-.59.72-.96,1.05-1.41Z"/>
          <path class="cls-3" d="m103.57,239.52c.3,1.83.49,1.99,2.3,2.02.63-.79.16-1.48-.32-2.04-.52-.61-1.22-.58-1.98.02Z"/>
          <path class="cls-3" d="m137.07,253.02c0,.23.13.6.29.66.44.16.93.19,1.3.25.6-.69.77-1.24.33-1.87-1.32,0-1.92.28-1.92.96Z"/>
          <path class="cls-3" d="m133.7,255.47c.54.39,1.08.87,1.8.25.26-.22.41-.57.64-.92-.4-.3-.7-.52-1.08-.8-.71.34-1.34.54-1.36,1.47Z"/>
        </g>
        <g>
          <path class="cls-3" d="m389.35,175.22c-.12.36-.3.88-.46,1.34-.82.44-1.56.59-2.27.14-1.02-.64-2.08-1.26-2.98-2.06-2.14-1.89-4.17-3.89-6.28-5.81-1.41-1.29-2.75-2.62-4.02-4.06-1.16-1.32-2.58-2.42-3.91-3.6-.17-.15-.47-.15-.62-.2-3.32,2.06-6.83,2.59-10.48,1.66-4.84-1.23-6.17-5.64-4.48-9.77.65-1.59,1.35-3.16,2.07-4.83-.42-.55-.76-1.19-1.28-1.63-1.4-1.2-2.02-3.24-4.4-3.7-1.14.34-2.58.9-4.07,1.17-3.6.65-6.59-.77-6.73-4.64-.09-2.74.37-5.38,2.02-7.62,2-2.7,3.99-5.43,6.81-7.41,3.01-2.11,6.27-3.34,9.96-3.39.45,0,.89.02,1.34.02,1.9-.03,3.42.92,3.96,2.63.62,1.98.73,4.09.13,6.03-.58,1.89-.17,3.35.91,4.81.98,1.33,1.93,2.68,3,4.16.86.32,1.83.2,2.74-.38,2.72-1.72,5.71-1.58,8.67-1.12,2.61.41,4.61,3.45,4.28,6.34-.16,1.44-.59,2.86-.91,4.29-.29,1.28-.97,2.29-1.95,3.19-1.06.98-1.92,2.17-3,3.42,3.94,6.93,7.89,13.87,11.95,21.01Zm-35.13-37.35c1.53-1.69,3.14-3.33,4.52-5.13,1.18-1.54,2.4-3.13,2.51-5.24.06-1.06.26-2.12.41-3.32-.54-.83-1.34-1.39-2.57-1.42-3-.08-5.79.59-8.43,1.99-2.04,1.09-3.91,2.36-5.27,4.28-.7.98-1.49,1.91-2.18,2.89-2.17,3.07-2.89,6.31-.96,10.07,1.12.1,2.24.43,3.25.23,3.28-.64,6.39-1.77,8.72-4.35Zm15.56,19.93c3.89-2.17,6.95-5.31,9.85-8.63.33-.38.69-.82.8-1.29.47-1.98.93-3.95.64-6.03-.18-1.31-.83-2.05-2.01-2.51-2.24-.87-4.45-.46-6.5.43-1.18.51-2.12,1.57-3.08,2.32-.04.67-.06,1.17-.09,1.73-.42.07-.78.14-1.26.22-1.01-1.87-1.86-3.8-3.03-5.52-1.2-1.76-2.14-3.76-4.08-5.2-2.58,2.83-5.13,5.63-7.7,8.46q.33.77,1.03,1.22c.52-.45,1.03-.89,1.49-1.29.65.22.91.54.67,1.06-.21.46-.54.86-.75,1.32-.23.48-.11.87.47,1.01q1.91-1.22,2.72-.08c-.47.54-.96,1.11-1.42,1.64.54,1.72,2.77,2.23,2.84,4.44-.62.19-1.24.37-1.81.54-.46-.81-.82-1.44-1.39-2.45-.84,2.08-1.74,3.72-2.14,5.47-.37,1.6-.21,3.36,1.2,4.58,1.12.96,2.43,1.69,3.96,1.74,1.32.04,2.66-.04,3.98-.13,1.5-.11,2.59-.92,3.32-2.12.82-.32,1.62-.54,2.33-.94Zm16.74,16.61c-.5-2.52-8.9-17.22-10.69-18.78-1.56,1.23-3.13,2.46-4.93,3.88,2.44,3.03,4.97,5.66,7.74,8.06,1.34,1.16,2.59,2.41,3.9,3.59,1.24,1.12,2.34,2.43,3.98,3.24Z"/>
          <path class="cls-3" d="m368.94,147.72c-1.14,1.74-2.53,3.12-4.76,3.37-.7.08-.9.61-.65,1.28.83.67,1.75.43,2.5.03,1.61-.85,3.14-1.86,4.24-3.37.4-.55.61-1.09.2-1.82-.75-.29-1.17-.03-1.53.52Z"/>
          <path class="cls-3" d="m358.65,126.62c-1.27-1.03-2.79-1.43-4.34-1.68-.58-.09-.93.29-.92,1.1,1.19.52,2.42,1.11,3.7,1.58.76.28,1.34-.01,1.56-1Z"/>
          <path class="cls-3" d="m351.37,126.58c-.3.33-.52.55-.71.8-.06.08-.01.24-.02.6.88.28,1.82.65,2.78.86.68.14,1.06-.28,1.05-1.19-1.08-.37-2.09-.71-3.11-1.06Z"/>
          <path class="cls-3" d="m348.52,129.79c.09.54.71.87,1.14.61.72-.44.87-1.02.17-1.85-.78.15-1.48.26-1.31,1.24Z"/>
        </g>
        <g>
          <path class="cls-3" d="m185.83,42.52c-.08.59-.24.99-.17,1.34.22,1.11.56,2.19.77,3.29.17.9.42,1.71,1.33,2.12.9-1,1-1.03.66-2.12-.5-1.61-.57-3.5-2.58-4.63Z"/>
          <path class="cls-3" d="m227.87,88.53c.09-.28-.06-.85-.28-.97-.41-.21-.96-.31-1.42-.24-.54.09-.81.53-.61,1.47.48.13,1,.37,1.51.37.28,0,.71-.35.81-.63Z"/>
          <g>
            <path class="cls-3" d="m269.18,32.33c1.09,3.54,1.12,7.14,1.48,10.88-.15,1.83-.29,3.8-.49,5.76-.21,2.03-.48,4.05-.72,6.07-.29,2.42-1,4.72-1.9,6.98-1.18,2.95-2.37,5.91-3.37,8.93-1.32,3.97-3.32,7.55-5.75,10.91-1.71,2.37-3.34,4.79-5.07,7.14-.52.71-1.19,1.34-1.89,1.88-2.35,1.83-4.65,3.75-7.15,5.37-1.67,1.08-3.38,2.13-5.47,2.54-1.89.38-3.65,1.43-5.43,2.26-.95.45-1.84.8-2.93.56-.55-.12-1.14-.05-1.71-.01-2.88.17-5.51-.8-8.12-1.83-.29-.11-.65-.25-.81-.48-1.14-1.74-3.08-2.41-4.69-3.5-3.09-2.1-4.37-5.1-4.79-8.67-.24-2.05.23-3.84,1.14-5.67.76-1.52,1.45-3.21,1.59-4.87.22-2.66-.87-5-3.01-6.7-1.69-1.35-3.5-2.51-5.5-3.4-1.26-.56-2.33-1.55-3.57-2.16-2.9-1.44-5.84-2.78-8.62-4.45-1.27-.77-2.45-1.58-3.37-2.77-1.48-1.9-3.15-3.68-4.53-5.66-1.99-2.86-3.08-6.07-3.54-9.55-.39-3.01-.13-6,.12-8.95.44-5.01,2.09-9.67,5.01-13.85,1.16-1.66,2.07-3.5,3.22-5.16,1.21-1.73,2.75-3.12,4.58-4.25,2.05-1.26,3.92-2.81,5.9-4.18.83-.57,1.7-1.12,2.63-1.5,2.71-1.12,5.45-2.14,8.17-3.23,1.44-.58,2.88-.92,4.46-.68,1.06.16,2.16,0,3.24.03,3.37.1,6.74.23,10.1.36.25,0,.52,0,.76.05,2.51.62,5.06,1.12,7.51,1.94,1.8.6,3.47,1.58,5.18,2.45,1.47.75,2.9,1.58,4.37,2.34,1.63.84,3.3,1.62,4.93,2.47.67.35,1.31.79,1.91,1.25,3.63,2.8,7.19,5.67,9.96,9.38,2.72,3.65,4.79,7.59,6.15,11.98Zm-43.51,63.82c3.74-.54,7.38-1.48,10.86-2.93,1.26-.53,2.36-1.47,3.5-2.28,1.19-.85,2.36-1.74,3.5-2.66,1.39-1.11,2.85-2.16,4.1-3.43,1.79-1.81,3.37-3.81,5.1-5.68,2.46-2.64,4.4-5.66,5.81-8.93,1.69-3.91,3.01-7.98,4.44-11.99.49-1.37,1.03-2.77,1.23-4.2.38-2.64.86-5.28.72-7.98-.05-1.01.02-2.04.14-3.05.19-1.62,0-3.18-.57-4.69-.94-2.51-1.85-5.02-2.87-7.49-1.13-2.72-2.68-5.2-4.69-7.37-.99-1.07-2.02-2.16-2.76-3.41-.93-1.57-2.18-2.8-3.52-3.98-.91-.8-1.84-1.57-2.67-2.45-2.38-2.53-5.18-4.52-8.01-6.48-.82-.57-1.81-.93-2.75-1.3-2.3-.91-4.62-1.8-6.95-2.65-.77-.28-1.58-.55-2.39-.59-3.05-.16-6.11-.25-9.16-.32-1.4-.03-2.81.12-4.21.04-1.18-.07-2.26.09-3.35.53-2.65,1.06-5.32,2.08-8,3.06-1.22.44-2.23,1.1-3.22,1.95-1.68,1.45-3.46,2.85-5.39,3.93-2.22,1.23-3.67,3.08-5,5.1-.73,1.11-1.39,2.28-2.07,3.43-.55.93-1.15,1.84-1.6,2.82-1.27,2.72-2.22,5.54-2.61,8.53-.19,1.44-.31,2.89-.42,4.35-.05.7.04,1.4,0,2.1-.15,2.18.2,4.32.72,6.4.91,3.67,3.02,6.72,5.4,9.57,1.1,1.31,2.26,2.66,3.65,3.6,1.89,1.27,4.03,2.17,6.07,3.21,4.42,2.26,8.91,4.35,12.78,7.58,1.98,1.65,3.14,3.65,3.61,6.1.15.79.3,1.68.1,2.42-.56,2.02-1.12,4.07-2.02,5.96-1.53,3.22-.78,6.16.95,8.86,1.88,2.95,4.8,4.04,8.47,3.5.93.7,1.93.99,3.08.83Zm42.82-56.57c-.22-3.16-.88-6.14-1.95-9.09-1.52-4.19-3.87-7.88-6.8-11.17-2.59-2.91-5.77-5.18-8.84-7.55-.17-.13-.36-.26-.54-.36-.36-.19-.74-.3-1.16-.25-.11.01-.23.04-.34.08,0,0,0,0-.01-.02h0s0,0-.01-.01l-.05.05s.05-.01.08-.02c.27.29.53.59.8.89.44.5.89,1,1.38,1.45,3.4,3.1,6.21,6.71,9.04,10.31.74.94,1.36,2.01,1.87,3.09,1.34,2.88,2.55,5.82,3.87,8.71.95,2.07,1.38,4.24,1.3,6.49-.1,2.86-.27,5.72-.5,8.58-.29,3.45-1.28,6.73-2.42,9.99-1.35,3.85-2.65,7.7-4.48,11.36-1.49,2.98-3.22,5.75-5.6,8.13-1.61,1.61-2.99,3.47-4.48,5.21-.33.38-.63.81-1.02,1.12-2.84,2.26-5.69,4.5-8.55,6.73-3.32,2.6-7.46,3.14-11.31,4.36-1.17.37-2.42.47-3.9.73,1.05.76,1.88,1.04,2.86,1.15,1.96.22,3.82-.26,5.61-.84,2.65-.86,5.17-2.12,7.73-3.2,3.44-1.45,6.35-3.95,9.11-6.49,1.3-1.2,2.47-2.58,3.54-3.99,1.83-2.44,3.68-4.88,5.27-7.48,1.48-2.43,2.88-4.93,3.75-7.71.72-2.3,1.76-4.5,2.59-6.77.63-1.73,1.32-3.47,1.7-5.26,1.29-5.99,1.9-12.04,1.47-18.2Z"/>
            <polygon class="cls-3" points="248.85 11.23 248.85 11.23 248.85 11.23 248.85 11.23 248.85 11.23"/>
            <path class="cls-3" d="m228.61,69.57c-1.88,1.27-3.75,2.6-6.18,3.16-2.3-1.04-4.27-2.55-5.93-4.41-3.66-4.1-2.32-10.53,3.49-12.39,1.93-.62,3.75-.53,5.68.53,2.13,1.18,4,2.48,5.04,4.72,1.13,2.43.6,6.59-2.09,8.4Zm-9.19-6.55c.07-1.82.91-3.39,2.05-5.08-2.74.13-4.09,1.29-4.7,3.72-.65,2.61.39,5.07,2.64,6.41,0-1.65-.05-3.35.01-5.05Zm4.97,6.95c1.51-1.35,2.71-2.43,4.34-3.89,1.41-2.72-.65-6.07-4.41-7.64-3.51,2.07-4.06,6.82-1.22,11.71.61-.08,1.16-.16,1.29-.18Z"/>
            <path class="cls-3" d="m228.81,16.32c.27-4.04,2.95-6.48,7.04-6.43,4.71.06,8.15,3.17,8.55,7.77.16,1.9-.43,3.65-1.44,5.22-.58.9-1.37,1.66-2.12,2.45-.93.97-2.13,1.01-3.37.9-4.65.37-9-5.03-8.67-9.9Zm2.67,3.56c1.12,3.5,4.54,5.28,7.93,4.03.38-.49.82-1.03,1.24-1.59.41-.55.98-1.06,1.19-1.68,1.54-4.44-1.64-8.75-6.36-8.72-.63,0-1.27,0-1.93,0-.54.47-.92.82-1.32,1.13-.96.75-1.33,1.67-1.45,2.93-.14,1.42.29,2.66.69,3.9Z"/>
            <path class="cls-3" d="m257.49,47.74c2.77.85,3.88,2.88,4.04,5.6.02.32.04.63.05.95.28,3.94-3.68,7.25-6.33,7.59-1.65.21-3.4-.46-5.11-.73-4.17-3.55-5.22-9.09-.73-12.59.6-.46,1.26-.84,1.91-1.24,1.28-.78,2.64-.85,4.03-.4.73.23,1.41.59,2.14.81Zm.24,2.57c-1.1-.51-2.22-.96-3.35-1.38-.89-.33-1.78-.1-2.6.26-2.42,1.08-3.61,3.59-2.95,6.17.41,1.58,1.1,2.99,2.67,4.06.87.08,1.78.06,2.64.26,1.2.29,2.11.02,2.88-.94.31-.39.75-.69,1.09-1.07,1.47-1.62,1.68-4.77.42-6.58-.21-.31-.48-.64-.8-.79Z"/>
            <path class="cls-3" d="m209.87,18.18c-1.04-1.18-1.11-2.79-1.47-4.26-.07-.3-.01-.63-.01-.95-.03-4.14,1.87-5.84,5.21-7.02,2.42-.86,4.82-.65,7.12.79,2.37,1.48,2.98,3.75,3.03,6.19.03,1.47-.46,2.92-1.25,4.32-2.61,4.6-9.43,4.55-12.63.93Zm6.03.75c2.37-.04,4.25-1.37,5.07-3.62.26-.71.42-1.47.6-2.21.32-1.36-.11-2.51-1-3.52-1.86-2.1-4.61-2.61-7.44-1.38-1.42.62-2.5,1.56-2.65,3.21-.09.93-.12,1.89,0,2.81.39,3.35,2.27,4.47,5.43,4.72Z"/>
            <path class="cls-3" d="m204.95,18.05c.8,2.94.54,5.8-1.33,8.35-.19.26-.38.51-.55.78-1.17,1.83-2.84,2.68-4.81,2.54-5,.37-8.91-5.76-7.23-9.86.43-1.06.89-2.12,1.48-3.1,1.34-2.27,3.53-3.29,6.03-3.53,2.61-.26,5.66,2.03,6.42,4.81Zm-1.76,3.64c-.06-.88-.07-1.78-.19-2.65-.27-1.94-1.58-2.98-3.33-3.51-1.67-.5-3.24-.38-4.57.97-1.16,1.18-1.83,2.61-2.23,4.14-1.09,4.22,1.8,7.49,6.13,7.05,1.03-.1,1.89-.52,2.42-1.33.93-1.4,2.16-2.74,1.77-4.68Z"/>
            <path class="cls-3" d="m244.99,30.81c.8-1.45,1.76-2.79,3.11-3.82,1.28-.99,2.73-1.37,4.29-1.26.94.07,1.91.21,2.79.54.61.23,1.19.73,1.61,1.25,1.3,1.62,1.52,2.49,1.59,5.15.42,3.16-1.63,6.68-5.02,7.32-1.74.32-3.62.23-5.38-.06-.76-.13-1.57-1.12-1.99-1.91-.65-1.21-.99-2.59-1.45-3.9-.41-1.17-.11-2.29.44-3.3Zm3.53,7.55c1.58-.12,3.1-.17,4.59-.39.58-.08,1.19-.45,1.64-.85,1.3-1.14,1.52-2.7,1.57-4.34.08-2.99-.59-3.87-3.37-4.84-2-.7-3.55.01-4.77,1.4-2.31,2.65-2.63,5.3.34,9.01Z"/>
            <path class="cls-3" d="m190.69,45.35c-.44-1.06-.38-2.37-1.6-3.33-.17.43-.32.62-.29.77.68,2.84,1.37,5.68,2.1,8.5.11.41.4.8.69,1.12.52.57.84.48,1.63-.33-.44-1.1-.89-2.21-1.31-3.32-.42-1.13-.76-2.3-1.22-3.41Z"/>
            <path class="cls-3" d="m195.19,46.98c-.17-.59-.5-1.16-.86-1.67-.17-.24-.57-.3-1.15-.58.6,3.05,1.14,5.81,1.71,8.56.06.28.31.52.46.75,1.35-.3,1.51-.41,1.26-1.56-.4-1.85-.89-3.69-1.42-5.51Z"/>
            <path class="cls-3" d="m235.02,69.67c-.16-.12-.43-.09-.69-.13.37,2.46,2.77,6.03,4.52,6.77.9-.63.64-1.3.26-1.91-1.13-1.78-2.39-3.44-4.08-4.73Z"/>
            <path class="cls-3" d="m236.38,65.94c1.19,1.87,2.27,3.59,3.39,5.29.24.37.56.73.93.94.7.4,1.22.19,1.42-.92-1.19-1.58-2.47-3.31-3.79-5.02-.47-.6-1.07-.86-1.94-.29Z"/>
            <path class="cls-3" d="m233.25,76.22c-.15.89,0,1.52.81,1.81.22.08.47.07.79.11.19-.45.36-.84.52-1.22-.55-.77-1.06-1.4-2.13-.7Z"/>
          </g>
          <path class="cls-3" d="m221.08,89.71c.25.24.81.38,1.14.28.65-.21.62-.76-.05-1.94-1.24.78-1.54,1.23-1.09,1.66Z"/>
        </g>
        <g>
          <path class="cls-3" d="m111.29,291.63c.41.13.79.38,1.41.69-.64.98-1.27,1.71-1.63,2.56-.65,1.52-1.23,3.08-1.69,4.67-1.08,3.8-2.25,7.55-3.99,11.12-.53,1.08-.78,2.29-1.2,3.42-.31.82-.34.8-1.54,1.26-1.68-1.9-4.01-2.69-6.32-3.49-1.92-.67-3.87-1.24-5.81-1.83-2.25-.68-4.51-1.35-6.77-2-2.5-.72-4.98-1.56-7.63-1.64-.8-.02-1.64-.33-2.37-.7-1.66-.83-3.4-1.4-5.16-1.96-1.02-.32-1.97-.87-2.92-1.37-2.94-1.55-6.02-2.74-9.22-3.6-1.05-.28-2-.72-2.98-1.18-1.89-.88-3.91-1.5-5.91-2.13-2-.62-4.05-1.12-6.08-1.67-.37-.1-.76-.16-1.09-.34-3.55-1.96-7.51-2.78-11.26-4.19-2.92-1.1-5.81-2.27-8.74-3.34-2.63-.96-5.28-1.86-7.94-2.74-2.94-.97-5.89-1.9-8.85-2.82-1.02-.32-2.08-.54-3.24-.84-.61-.72-.29-1.58,0-2.42.7-2.11,1.52-4.19,2.1-6.34.6-2.23,1.54-4.31,2.48-6.4.74-1.61,1.36-3.28,2.07-5.02.49.03,1.06-.09,1.46.11,1.78.91,3.75,1.12,5.63,1.62,3.26.86,6.54,1.64,9.81,2.43,1.67.4,3.37.68,5.02,1.15,3.49,1,6.92,2.17,10.42,3.1,3.01.8,5.95,1.83,8.9,2.83,2.05.7,4.05,1.52,6.09,2.25,2.69.96,5.38,1.92,8.09,2.81,2.35.77,4.74,1.41,7.09,2.19,2.05.68,4.05,1.51,6.09,2.22.9.31,1.83.51,2.75.76,1.17.32,2.34.61,3.5.97,3.22,1,6.44,1.99,9.63,3.08,2.1.72,4.13,1.67,6.22,2.43,1.85.68,3.75,1.23,5.62,1.85,1.93.64,3.85,1.31,5.79,1.94.72.23,1.47.34,2.19.57Zm-1.81,1.94c-1.19-.34-2.26-.64-3.23-.91-1.47,1.08-1.57,2.63-2.04,3.99-.2.58-.39,1.21-.74,1.7-.38.53-1.25.49-1.8-.03-.05-.38-.11-.87-.17-1.39,1.98-1.2,1.44-3.42,2.38-5.29-1.84-.34-3.25-1.59-5.21-1.48-.33.71-.63,1.33-.9,1.96-.28.64-.52,1.3-.8,1.95-.36.83-.96,1.13-1.82.81-.55-.68-.49-1.29.04-1.92.89-1.04,1.26-2.3,1.54-3.71-1.35-.51-2.63-1-4.02-1.52-1.09,1.7-2.11,3.29-3.23,5.04-.32.12-.87.32-1.38-.53.81-1.65,1.67-3.39,2.58-5.25-1.86-.77-3.61-1.22-5.58-1.32-.81,1.49-1.62,2.98-2.53,4.64-.67-.38-1.17-.66-1.86-1.05.51-.76.83-1.37,1.27-1.88.69-.79,1.22-1.61,1.15-2.84-2.04-.59-4.03-1.39-6.38-1.4-.59,1.15-1.16,2.27-1.74,3.39-.78,1.5-1.46,1.56-2.8.1.29-.29.59-.58.87-.88.86-.9,1.62-1.89,1.73-3.25-.99-.86-1.67-1.24-2.73-1.42-.36-.06-.76-.09-1.23-.11-.99,1.45-1.29,3.46-3.22,4.39-.27-.38-.51-.72-.82-1.16.92-1.17,1.92-2.28,1.97-3.88-2.52-1.72-5.47-1.98-8.27-2.96-.38.83-.71,1.51-1,2.21-.27.65-.44,1.34-.75,1.96-.48.99-.55.98-1.99.6-.43-.68-.31-1.48.18-1.93,1.04-.94.93-2.27,1.57-3.3-1.9-.71-3.66-1.38-5.48-2.07-.88,1.66-1.73,3.23-2.56,4.8-.32.6-.65,1.13-1.48.77-.4-.51-.39-1.04-.08-1.59.34-.61.71-1.21,1.01-1.84.46-.96.88-1.93,1.32-2.91-1.39-1.14-2.94-1.22-4.48-1.65-1.23,2.12-1.99,4.38-2.77,6.59-1.23-.3-1.23-1.12-1.06-1.87.21-.92.59-1.81.93-2.7.34-.87.73-1.71,1.17-2.73-1.66-.49-3.09-.9-4.39-1.28-1.06,1.75-1.98,3.27-2.89,4.8-.41.69-1,.95-1.76.86-.11-.01-.21-.12-.44-.26-.03-.46-.07-1.01-.1-1.54,1.94-.85,2.67-2.4,3.12-4.43-1.26-.46-2.48-.9-3.64-1.33-.45.42-.8.63-1,.94-.96,1.5-1.87,3.02-2.94,4.75-.2.03-.68.09-1.13.15-.81-1.6.69-2.25,1.15-3.27.48-1.07,1.14-2.07,1.8-3.24-2.1-.63-3.97-1.09-5.93-1.05-1.15,1.84-2.2,3.57-3.31,5.27-.72,1.1-.92,1.06-1.93-.14.56-2.11,2.79-3.39,3.16-5.72-1.71-.9-3.5-1.22-5.29-1.42-.82,1.08-.79,2.62-2.33,3.11-.28-.33-.55-.65-.78-.92.42-.94.8-1.78,1.24-2.77-3.19-.76-6.14-1.46-9.2-2.19-3.2,4.85-4.89,10.16-6.1,15.88.87.36,1.59.74,2.36.97,4.14,1.27,8.28,2.5,12.43,3.75.61.18,1.23.36,1.82.58,4.77,1.79,9.53,3.6,14.29,5.39,2.56.96,5.09,2.04,7.7,2.86,3.89,1.22,7.84,2.24,11.75,3.37,1.46.42,2.92.88,4.35,1.4,1.12.41,2.2.95,3.3,1.43.99.43,2.03.77,2.98,1.27,2.03,1.07,4.09,2.07,6.29,2.73,1.15.35,2.31.78,3.35,1.37,1.43.8,2.92,1.23,4.54,1.33.5.03,1.01.13,1.5.25,4.14,1.01,8.34,1.73,12.31,3.39,2.16.91,4.48,1.43,6.7,2.2,1.26.43,2.47,1,3.94,1.61.53-.43,1.14-.74,1.46-1.24.58-.9,1.07-1.88,1.44-2.89,1.37-3.77,2.7-7.55,4-11.35.28-.83.4-1.71.63-2.72Z"/>
          <path class="cls-3" d="m15.72,273.96c-2.1,1.59-2.83,1.76-6.26,1.42-.81-.7-1.58-1.51-1.59-2.66,0-1.59.1-3.22,1.03-4.56.3-.43,1.04-.71,1.61-.76,1.43-.12,2.76.4,3.92,1.2,1.93,1.33,2.02,3.2,1.29,5.36Zm-5.33-4.5c-.56,1.05-.96,2.13-.57,3.26,1.17.8,2.27.83,3.38.19,1.2-2.03.51-2.88-2.81-3.46Z"/>
          <path class="cls-3" d="m102.39,307.85c-1.32-1.09-2.59-2.23-3.9-3.32-.42-.34-.93-.58-1.6-.98-.26.67-.39,1.01-.55,1.43,2.37,1.22,3.53,3.86,5.96,4.96.94-1.26.92-1.4.1-2.08Z"/>
          <path class="cls-3" d="m92.32,303.48c-.25-.11-.67.15-1.2.29.3.48.43.8.65,1,1.16,1.08,2.32,2.15,3.52,3.18.61.52.92.35,1.72-.8-1.24-1.62-2.82-2.84-4.7-3.67Z"/>
          <path class="cls-3" d="m87.87,302.55c-.37.35-.68.63-1.15,1.07,1,1.12,1.92,1.95,3.26,2.01.3.01.62-.43.99-.71-.93-1.15-1.94-1.83-3.1-2.38Z"/>
        </g>
        <g>
          <path class="cls-3" d="m304.64,45.31c-.44-.22-.79-.6-1.1-.84.02-1.56.95-2.54,1.72-3.49,2.35-2.92,4.78-5.75,7.68-8.18,2.2-1.85,4.38-3.68,6.81-5.2.69-.43,1.44-.94,2.21-1.06,2.39-.36,4.8-.62,7.22-.23,2.45.39,4.91.67,7.34,1.12,2.97.55,5.74,1.54,7.97,3.75.93.93,2.19,1.52,3.15,2.43,3.37,3.22,5.99,6.95,7.06,11.57.49,2.1.75,4.25,1.11,6.38.11.63.2,1.26.3,1.88.43,2.54.07,5.05-.22,7.58-.66,5.71-3.33,10.62-6.12,15.48-.43.75-1.12,1.34-1.73,1.87-2.28.82-3.74-.49-5.19-1.78-1.57-1.4-3.19-2.71-5.1-3.62-.33-.15-.56-.49-.85-.74-3.5-3.15-7.09-6.22-10.47-9.49-2.67-2.58-5.59-4.75-8.66-6.84-3.51-2.39-6.71-5.24-10.04-7.89-.25-.2-.59-.35-.72-.61-.51-1.05-1.41-1.59-2.39-2.09Zm4.52.75c.18.16.44.22.79.39.56-.51,1.13-1,1.67-1.51.46-.44.85-.94,1.33-1.35.42-.36.91-.43,1.53.14-.28,1.78-2.16,2.75-2.7,4.45.85.65,1.65,1.26,2.56,1.95.56-.39,1.07-.76,1.59-1.11.57-.38,1.15-.74,1.92-1.23.22.65.37,1.07.46,1.33-.83.9-1.5,1.63-2.33,2.54.9.61,1.61,1.08,2.43,1.63.57-.4,1.09-.74,1.58-1.11.41-.3.76-.7,1.19-.95.61-.36,1.21-.4,1.65.39-.38,1.4-1.93,1.9-2.71,3.2,1.19.71,2.26,1.35,2.99,1.78,1.92.22,2.37-2.08,4.19-1.46.04.41.09.82.11.99-.79.83-1.42,1.49-2.16,2.25,1.15,1.13,2.14,2.1,3.02,2.96,1.3-.23,2.17-.7,2.84-1.53.52-.63,1.11-1.04,2.09-.55.18,1.98-1.96,2.31-2.63,3.59.82,1.46,1.31,1.95,2.95,2.92,1.67-.14,2.29-1.65,3.25-2.62.83.14,1.09.65.85,1.26-.26.63-.69,1.2-1.11,1.74-.38.47-.87.87-1.38,1.36,1.01.93,1.9,1.73,2.93,2.68,1.31-1.13,2.54-2.21,3.79-3.25.53-.44,1.03-.4,1.56.37-.44.68-.87,1.43-1.38,2.13-.55.76-1.18,1.46-1.89,2.34.92.53,1.66.96,2.27,1.31,1.58-.47,2.33-1.59,3.04-2.73.51-.82,1.08-.98,2.07-.32-.99,1.68-1.96,3.34-3.04,5.19.95.62,1.76,1.14,2.62,1.7.41-.51.75-.82.95-1.21,2.04-3.81,4.42-7.44,5.39-11.75.64-2.81,1.16-5.69.85-8.5-.38-3.45-.58-6.96-1.79-10.32-1.32-3.67-3.12-6.94-6.05-9.53-1.48-1.31-3.02-2.55-4.59-3.74-.64-.49-1.41-.9-2.18-1.13-2-.6-4.03-1.14-6.07-1.6-1.36-.31-2.78-.34-4.14-.67-2.27-.54-4.54-.12-6.81-.14-.3,0-.64.12-.89.29-1.97,1.29-3.95,2.56-5.86,3.94-.97.7-1.8,1.6-2.65,2.45-1.04,1.03-2.04,2.09-3.04,3.15-.48.51-.92,1.05-1.38,1.58-2.29,2.64-3.17,3.19.38,6.31Z"/>
          <path class="cls-3" d="m320.84,44.17c-.47-.39-.89-.84-1.33-1.26,2.02-4.9,7.86-7.89,12.08-7.68,2.65.13,5.15.88,7.52,1.91,1.27.55,2.37,1.71,3.29,2.8,1.02,1.2,1.81,2.61,2.59,3.99,1.74,3.08,2.31,6.42,2.07,9.92-.02.32-.04.64,0,.95.26,1.65-.25,3.1-.99,4.57-.4.79-.43,1.77-.71,3.03-.26.32-.84.33-1.41-.14-.69-.57-1.44-1.11-1.95-1.82-.66-.92-1.6-1.38-2.49-1.97-2.06-1.36-4.12-2.71-6.1-4.19-2.35-1.74-4.63-3.57-6.9-5.41-1.28-1.03-2.47-2.16-3.73-3.21-.63-.53-1.32-.97-1.96-1.49Zm2.46-1.52c1.7,2.4,17.74,14.91,20.67,15.97.6-1.2.98-2.48,1.02-3.81.1-3.48-.36-6.88-2.35-9.84-.88-1.3-1.93-2.53-3.06-3.62-3.22-3.08-6.82-4.75-11.38-3.01-2.19.84-3.89,2.07-4.9,4.3Z"/>
        </g>
        <g>
          <path class="cls-3" d="m220.37,280.89c.99,1.59,1.78,3.38,1.76,4.83.12,2.13.26,3.71-.41,5.24-.2.46-.32.99-.3,1.48.06,1.79-.75,3.32-1.35,4.92-.68,1.81-2.09,2.86-3.74,3.59-1.77.79-3.85.05-4.95-1.62-.7-1.06-1.4-2.11-2.02-3.21-1.16-2.06-.85-4.34-.68-6.53.24-3.08,1.22-5.97,2.81-8.63,1.13-1.9,2.72-2.99,5.06-2.6,1.65.28,3.03,1.23,3.83,2.53Zm-1.4,1.79c-.53-1.18-1.57-1.88-2.67-2.31-1.62-.63-2.39-.22-3.25,1.36-1.12,2.08-2.03,4.23-2.43,6.58-.68,4.02-.2,7.71,3.05,10.72.61-.06,1.12-.22,1.59-.14.97.17,1.61-.27,2.12-.96.37-.5.67-1.07.96-1.63.92-1.78,1.08-3.76,1.53-5.66.66-2.81.24-5.41-.9-7.96Z"/>
          <path class="cls-3" d="m254.73,223.84c.37.75.7,1.43,1.14,2.34-.49.95-.96,2.07-1.61,3.06-.8,1.22-1.76,2.34-2.65,3.51-1.89,2.5-4.12,4.67-6.35,6.85-2.78,2.71-5.45,5.54-8.16,8.32-3.28,3.37-6.54,6.77-9.86,10.1-1.55,1.56-3.06,3.17-4.48,4.84-.37,1.48-.63,2.98-.83,4.5-.04.3,0,.64.11.93.93,2.5,1.89,4.99,2.82,7.49,1.31,3.52,2.42,7.09,2.73,10.86.19,2.39-.43,4.67-.91,6.97-.42,2.01-1.32,3.83-2.15,5.7-.97,2.18-2.6,3.57-4.67,4.56-2.36,1.14-4.86,1.42-7.44,1.08-.88-.12-1.77-.25-2.64-.41-.44-.08-.94-.11-1.28-.35-2.68-1.83-5.36-3.62-6.01-7.21-.53-2.93-.09-5.74.74-8.49,1-3.28,2.18-6.51,4.16-9.39.97-1.4,2.28-2.39,3.51-3.48.71-.63,1.46-1.23,2.18-1.85,1.25-1.08,1.54-2.41,1.12-3.97-.2-.74-.46-1.45-.76-2.13-1.18-.13-2.36-.13-3.55.02-1.6.2-2.73.98-3.25,2.54-.3.9-.57,1.82-.88,2.72-.54,1.56-.95,3.14-1.88,4.57-1.91,2.93-4.45,5.25-7.11,7.42-2.22,1.82-4.66,3.29-7.57,3.91-3.57.77-6.25-1.04-8.96-2.82-.35-.23-.57-.68-.81-1.06-.48-.75-.94-1.52-1.38-2.29-1.29-2.26-1.98-4.67-1.83-7.29.14-2.29.8-4.32,2.45-6.05,1.41-1.48,2.75-3,4.45-4.15,1.95-1.32,3.82-2.76,6.1-3.49,3.61-1.15,7.33-1.48,11.08-1.6,2.67-.09,5.34-.15,8-.24.3-.01.64-.1.9-.25,1.43-.82,2.81-1.7,4.11-2.68,1.2-2.22,2.25-4.51,3.23-6.85,1.82-4.34,3.73-8.64,5.6-12.96,1.54-3.56,3.15-7.11,4.6-10.71,1.16-2.9,2.33-5.78,3.92-8.48.75-1.26,1.41-2.58,2.24-3.78.67-.98,1.52-1.83,2.22-2.65,1.01.06,1.77.11,2.6.16.92,1.45.97,3.03.47,4.56-1.58,4.82-3.25,9.62-4.89,14.42-.7,2.04-1.37,4.1-2.09,6.13-.92,2.57-1.87,5.13-2.8,7.69,1.85-1.69,3.7-3.39,5.56-5.07,1.6-1.44,3.25-2.84,4.87-4.26,3.82-3.34,7.62-6.71,11.48-10,1.23-1.05,2.7-1.6,4.4-1.3Zm-49,38.66c-1.36-.07-2.61-.16-3.87-.2-1.53-.05-3.06-.17-4.58-.05-3.81.29-7.54.82-10.93,2.92-2.19,1.36-4.11,2.96-5.87,4.8-2.15,2.24-2.84,4.86-2.42,7.9.38,2.78,1.71,5.21,3.62,7,2.09,1.96,4.8,3.16,7.89,2.03,2.46-.9,4.82-1.99,6.67-3.94.44-.46.96-.84,1.45-1.25,3.46-2.88,6.12-6.26,6.81-10.88.08-.56.3-1.1.49-1.64.23-.66.65-1.29.7-1.96.11-1.51.05-3.03.05-4.72Zm11.59-9.95c-.2.47-.41.94-.62,1.4,1.04-.99,2.12-1.94,3.24-2.83,2-1.58,4.06-3.09,6.11-4.62.05-.25.1-.5.14-.76.03-.25.13-.49.22-.73,1.13-3.03,2.31-6.05,3.39-9.1,1.13-3.18,2.2-6.38,3.25-9.59,1.07-3.26,2.13-6.51,3.1-9.8.28-.94.23-1.96.33-3.02-1.1,0-1.61.56-2,1.22-1.24,2.07-2.58,4.11-3.64,6.27-1.31,2.68-2.2,5.57-3.6,8.2-1.96,3.67-3.19,7.62-4.83,11.41-1.72,3.97-3.38,7.96-5.11,11.93Zm2.37,14.23c-.53.66-1.11,1.31-1.72,2.04-.8-.32-1.58-.56-2.37-.76.43,1.08.78,2.2,1.09,3.34,1.91-.66,2.14-.81,3.11-2.15-.15-.83-.17-1.65-.11-2.46Zm.91,4.9c-1.57.65-3,1.17-4.35,1.85-.6.3-1.02.93-1.54,1.39-.43.38-.85.79-1.33,1.08-4.01,2.4-6.13,6.14-7.48,10.43-.19.61-.34,1.23-.6,1.81-1.1,2.45-1.21,5.04-1.11,7.66.13,3.29,2.27,5.34,4.88,6.52,2.38,1.09,5.13,1.39,7.85.68,2.96-.77,5.13-2.4,6.39-5.24,1.03-2.34,1.78-4.71,2.2-7.26.66-3.93-.26-7.58-1.45-11.22-.47-1.45-1.17-2.82-1.79-4.21-.52-1.15-1.08-2.27-1.66-3.5Zm32.9-46c-.93.5-1.9.85-2.66,1.46-2.67,2.14-5.28,4.36-7.89,6.59-2.57,2.19-5.12,4.4-7.63,6.65-2.41,2.16-4.75,4.4-7.13,6.6-.19.17-.37.36-.59.48-1.88,1.09-3.49,2.53-5.12,3.95-1.63,1.42-3.32,2.77-4.94,4.2-1.33,1.18-2.6,2.44-3.89,3.67-1.54,1.47-3.29,2.58-5.35,3.03-.87,1.41-.92,1.68-.8,3.7,3.09-.38,6.17-.48,9.21.6,2.67-2.79,5.3-5.59,7.98-8.35,3.01-3.11,6.08-6.16,9.1-9.26,2.88-2.96,6.07-5.6,8.72-8.81,1.9-2.29,4.24-4.21,6.22-6.44,1.6-1.8,2.97-3.81,4.42-5.75.46-.61.79-1.29.37-2.31Z"/>
          <path class="cls-3" d="m219.92,258.51c-1.62-.89-2.09-.84-3.7.44.07,1.17.13,2.36,1.47,2.92,2.15-.56,2.3-.79,2.23-3.36Z"/>
          <path class="cls-3" d="m201.1,268.79c1.25,2.01.85,3.89-.48,5.66-1.86,2.48-4.16,4.49-6.91,5.88-1.96.99-3.94,2.15-6.29,1.86-1.26-.16-2.5-.41-3.74-.65-1.96-.38-3.43-2.03-3.38-3.96.05-1.8.48-3.5,1.9-4.83,1.25-1.17,2.36-2.49,4.03-3.12.46-.17.91-.49,1.26-.85,1.16-1.2,2.68-1.67,4.69-2.37,1.33-.56,3.29-.51,5.14-.2,1.5.25,2.9,1.16,3.79,2.58Zm-1.76.99c-.82-.86-1.86-1.56-3.15-1.59-2.8-.09-5.36.51-7.71,2.2-1.59,1.14-3.36,2.04-4.66,3.56-.41.48-.82.97-1.14,1.51-.44.74-.61,1.5-.09,2.33.26.41.31.94.48,1.53,4.02,1.86,7.61.91,11.08-1.26,2.02-1.26,3.67-2.92,5.17-4.75,1.14-1.39,1.23-2.27.03-3.52Z"/>
        </g>
      </g>
    </pattern>
  </defs>
  <g id="Camada_3" data-name="Camada 3">
    <rect class="cls-2" width="778.71" height="946.03"/>
  </g>
</svg>